<svg width="20" height="20" viewBox="0 0 20 20" fill="none" xmlns="http://www.w3.org/2000/svg">
<path d="M10 0C4.486 0 0 4.486 0 10C0 15.514 4.486 20 10 20C15.514 20 20 15.514 20 10C20 4.486 15.514 0 10 0ZM14.25 10.75H10.75V14.25C10.75 14.6645 10.414 15 10 15C9.586 15 9.25 14.6645 9.25 14.25V10.75H5.75C5.336 10.75 5 10.4145 5 10C5 9.5855 5.336 9.25 5.75 9.25H9.25V5.75C9.25 5.3355 9.586 5 10 5C10.414 5 10.75 5.3355 10.75 5.75V9.25H14.25C14.664 9.25 15 9.5855 15 10C15 10.4145 14.664 10.75 14.25 10.75Z" fill="#8F90A6"/>
</svg>
