<svg width="24" height="24" viewBox="0 0 24 24" fill="none" xmlns="http://www.w3.org/2000/svg">
<path d="M17.4911 5.48539C17.2268 5.49162 16.9758 5.60222 16.7928 5.793L11.9998 10.586L7.20687 5.793C7.11357 5.69709 7.00197 5.62088 6.87867 5.56888C6.75538 5.51688 6.62291 5.49015 6.4891 5.49027C6.29025 5.49052 6.09599 5.55003 5.93113 5.66122C5.76627 5.77241 5.6383 5.93022 5.56356 6.11449C5.48883 6.29876 5.47072 6.50113 5.51155 6.69574C5.55239 6.89036 5.65031 7.06838 5.79281 7.20707L10.5858 12L5.79281 16.793C5.69684 16.8852 5.62021 16.9955 5.56743 17.1177C5.51464 17.2398 5.48676 17.3712 5.4854 17.5043C5.48405 17.6373 5.50926 17.7693 5.55954 17.8924C5.60983 18.0156 5.6842 18.1275 5.77827 18.2216C5.87235 18.3157 5.98426 18.39 6.10744 18.4403C6.23061 18.4906 6.36259 18.5158 6.49563 18.5145C6.62867 18.5131 6.7601 18.4852 6.88223 18.4325C7.00436 18.3797 7.11473 18.303 7.20687 18.2071L11.9998 13.4141L16.7928 18.2071C16.885 18.303 16.9953 18.3797 17.1175 18.4325C17.2396 18.4852 17.371 18.5131 17.5041 18.5145C17.6371 18.5158 17.7691 18.4906 17.8923 18.4403C18.0154 18.3901 18.1273 18.3157 18.2214 18.2216C18.3155 18.1275 18.3899 18.0156 18.4401 17.8924C18.4904 17.7693 18.5156 17.6373 18.5143 17.5043C18.5129 17.3712 18.485 17.2398 18.4323 17.1177C18.3795 16.9955 18.3028 16.8852 18.2069 16.793L13.4139 12L18.2069 7.20707C18.3524 7.06753 18.4523 6.88728 18.4936 6.68995C18.5349 6.49261 18.5155 6.28742 18.4382 6.10126C18.3608 5.91511 18.2289 5.75669 18.0599 5.64678C17.8909 5.53688 17.6926 5.48062 17.4911 5.48539Z" fill="#637394"/>
</svg>
