<svg width="40" height="40" viewBox="0 0 40 40" fill="none" xmlns="http://www.w3.org/2000/svg">
<path d="M11.4647 32.2089C13.0303 25.7151 11.1717 25.4929 11.1717 22.3419C11.1717 21.2915 12 18.7768 12.1212 17.5548C12.4041 14.7472 11.7071 15.4945 13.7576 13.4141L13.8788 10.5256C14.9091 9.5359 15.4243 8.64715 16.6869 8.96023C17.4546 11.2427 16 10.5256 15.8586 13.1919C16.7172 14.3331 17.293 14.4442 17.9394 15.8783C18.7576 17.6962 18.1717 17.676 19.7172 19.201C21.9899 19.4636 23.3637 19.4737 24.9899 17.8376C25.1617 16.0904 24.1516 16.2419 25.1819 14.6361C25.8889 13.5352 26.5859 12.9394 27.9091 13.3838C28.3435 15.1006 26.394 15.4541 27.0001 17.3629C29.6162 17.6255 30.2223 14.02 32.2223 13.8382C32.2223 17.6861 28.2021 18.191 28.1112 21.3218C28.0506 23.2811 29.7879 28.6742 31.5455 29.8255C33.091 27.4521 34.7576 24.8667 34.9496 21.9985C36.293 2.42595 10.394 -1.13912 5.47475 15.9995C5.22222 16.8781 5.07071 17.7669 5 18.6556V20.928C5.43434 26.5634 8.9091 31.5121 11.4647 32.2089Z" fill="#8F90A6"/>
<path d="M19.0404 34.8348C26.0405 35.6629 25.3031 33.5017 23.9192 25.5333C23.3738 22.3924 22.7374 20.7361 19.0101 21.029C16.6869 23.7861 17.8586 29.1589 17.9394 31.5121C18 33.3704 17.6869 33.4916 19.0404 34.8348ZM27.091 32.9159C28.2627 32.7745 28.4647 32.5321 29.4142 31.7747C29.5657 30.1689 28.4647 27.5834 26.7475 27.0684C25.9394 28.6237 26.1718 31.3909 27.091 32.9159ZM15.5556 34.249C15.5556 32.2897 15.798 28.2399 14.7879 26.8462C13.4445 27.2401 13.8586 28.3914 13.8485 30.8455C13.8384 32.6432 13.5051 34.0672 15.5556 34.249Z" fill="#8F90A6"/>
</svg>
