<svg width="24" height="25" viewBox="0 0 24 25" fill="none" xmlns="http://www.w3.org/2000/svg">
<g clip-path="url(#clip0_1450_6194)">
<path d="M1.15005 10.926C1.15005 10.926 0.348304 11.5594 0.0839291 12.7377C0.0118877 13.0606 -0.0142447 13.3921 0.00630404 13.7224C0.0386918 14.2568 0.166986 14.781 0.385054 15.27C0.489679 15.5089 0.613804 15.7399 0.752554 15.9623C1.3698 16.9223 2.16255 17.7473 3.0648 18.4287C3.2905 18.5988 3.52241 18.7605 3.76005 18.9135C4.94993 19.6429 6.21443 20.2845 7.5363 20.7368C7.80068 20.8268 8.0658 20.9096 8.33205 20.9835C10.9409 21.6638 13.7092 21.5715 16.2971 20.9708C16.5273 20.9157 16.7868 20.847 17.0681 20.7619C18.7526 20.2527 21.2411 19.1704 23.1539 16.938C23.1539 16.938 25.1174 14.199 22.7126 12.0218L14.3763 11.688L1.1538 10.926" fill="#858985"/>
<path d="M23.0624 12.1146L22.5531 14.3988L12.1184 20.1674C12.1184 20.1674 1.07989 18.9273 1.54714 12.1143L6.99289 14.9991L9.69777 16.2036L14.4779 15.4671L20.0819 12.3546L23.0609 12.1146" fill="#3B4743"/>
<path d="M11.8518 17.1442C11.8197 16.7238 11.7948 16.3028 11.7772 15.8815L9.69859 16.2018L6.99371 14.9973L1.54796 12.1128C1.07921 18.9265 12.1192 20.1659 12.1192 20.1659L12.1931 20.1247C12.1155 19.1298 11.9295 18.1394 11.8526 17.1442" fill="#2C3834"/>
<path d="M4.86332 9.99756L2.55444 11.2703L4.46882 14.4181L11.4288 16.9396L18.4049 13.4686L20.3999 12.2656L18.1124 9.31806L14.2413 7.09131L11.4761 7.56006L4.86332 9.99756Z" fill="#627D5E"/>
<path d="M4.46886 10.5457C4.46886 10.5457 4.46211 10.5787 4.45273 10.6394C4.38186 11.0632 4.11298 12.832 4.46886 13.4609L3.56098 13.006L1.81836 9.99854H2.39098" fill="#2C3834"/>
<path d="M2.27804 10.3156L4.39379 11.2688C4.39379 11.2688 12.1657 8.06219 12.7885 8.10644L13.6124 6.85956L13.3158 5.44019L8.33279 6.70169L3.38166 8.52981L1.96191 9.25619L2.27804 10.3156Z" fill="#384440"/>
<path d="M13.4205 5.78552L12.7017 8.09739C12.7017 8.09739 18.3304 9.92964 18.9844 12.2636L21.9068 11.1735L21.3833 9.40614L18.9405 7.00727L13.9669 5.56689L13.4205 5.78552Z" fill="#2C3834"/>
<path d="M6.89328 11.5556L11.5999 9.71176C11.5999 9.71176 14.2958 8.70638 16.2675 10.0136C16.2675 10.0136 18.5603 11.019 17.0314 13.1925L9.87266 16.6324L5.36516 14.058C5.36591 14.0576 5.07753 12.2674 6.89328 11.5556Z" fill="#F7941E"/>
<path d="M20.967 7.78123C16.8007 4.97623 12.5242 5.02986 12.5242 5.02986C7.61172 5.56798 1.81084 8.50348 1.81084 8.50348C-0.0326568 10.6942 1.57009 13.2589 1.57009 13.2589C4.66984 17.7469 11.9632 18.2017 11.9632 18.2017C16.5585 16.9991 23.8526 12.2704 23.8526 12.2704C23.5323 9.25161 20.967 7.78123 20.967 7.78123ZM10.3068 15.7702C10.3068 15.7702 2.39809 13.6597 3.46722 9.65211C3.46722 9.65211 9.61122 6.28573 13.9136 6.04498C13.9136 6.04498 20.0853 5.99098 21.2336 10.6935C21.2336 10.6935 14.1011 13.98 10.3061 15.7702" fill="#9FA09F"/>
<path d="M12.5651 5.03177C12.5051 5.03027 12.4729 5.03027 12.4729 5.03027C7.91064 5.53052 2.58826 8.09365 1.84839 8.45927C2.40339 8.8984 3.01126 9.23965 3.65026 9.52727C4.72276 8.96252 9.29776 6.6439 12.99 6.13352C12.8423 5.76877 12.7007 5.40122 12.5651 5.03177Z" fill="#C6CACC"/>
<path d="M21.0861 10.7627C20.0643 11.2345 13.9735 14.0432 10.4736 15.6929C10.7076 16.198 10.8738 16.7312 11.1565 17.2195C11.3669 17.5844 11.623 17.9001 11.9013 18.1956C11.9418 18.2001 11.9676 18.2016 11.9676 18.2016C16.5366 17.0057 23.767 12.3284 23.8525 12.2725C22.9593 11.7201 22.0413 11.2094 21.0876 10.7612" fill="#D1D2D3"/>
<path d="M22.2336 13.2778C23.2083 12.6895 23.8281 12.2893 23.8533 12.2732C22.9585 11.7208 22.0416 11.2101 21.088 10.762C20.9283 10.8351 20.6369 10.9693 20.2596 11.1437C21.0408 11.7163 21.7068 12.4682 22.2336 13.2763M18.7206 11.8566C18.2628 12.0685 17.7678 12.2972 17.2409 12.5417C17.9984 13.2756 18.9925 13.8193 19.6806 14.7591C20.5353 14.2963 20.5679 14.2626 21.2676 13.852C20.5926 12.9835 19.7256 12.2271 18.7206 11.8566ZM15.9655 13.1316C15.418 13.3855 14.857 13.645 14.299 13.9048C14.6174 14.224 16.3908 15.7948 16.5876 16.378C17.2623 16.0603 17.4276 15.9617 18.0816 15.6193C17.6886 14.5843 16.8753 13.7672 15.9655 13.1316ZM13.0514 14.4853C12.1233 14.9196 11.2353 15.3347 10.4736 15.6932C10.7069 16.1983 10.873 16.7316 11.1558 17.2198C11.3661 17.5847 11.6223 17.9005 11.9013 18.196C11.9418 18.2005 11.9676 18.202 11.9676 18.202C12.9423 17.9466 14.0403 17.5281 15.1626 17.0342C14.6988 16.0165 13.9799 15.1611 13.0514 14.4853Z" fill="#A5B6C4"/>
<path d="M6.84033 12.4038L13.4175 9.74243L16.9612 12.4038L10.2941 15.4616L6.84033 12.4038Z" fill="#39784E"/>
<path d="M23.0962 16.9378L23.1195 16.9022L20.5308 15.262L14.5796 18.5102L16.5993 20.878C18.2685 20.428 21.0202 19.3592 23.0962 16.9378Z" fill="#44514D"/>
<path d="M19.1186 17.5305C20.0699 16.9755 20.3264 16.4913 20.8754 15.4811L20.5323 15.2625L14.5811 18.5107L15.0232 19.029C16.1902 18.8295 18.2126 18.0573 19.1186 17.5305Z" fill="#5F6865"/>
<path d="M10.4922 10.926L13.7513 13.8761M11.3176 12.3657C11.3352 11.9607 11.7094 11.6494 12.1534 11.6693C12.5978 11.6884 12.9421 12.0308 12.9256 12.4362C12.9079 12.84 12.5329 13.1513 12.0901 13.1314C11.6446 13.113 11.2988 12.7703 11.3176 12.3657Z" stroke="white" stroke-width="0.25" stroke-miterlimit="10"/>
<path d="M13.5939 4.2514L13.5271 4.72615C13.5271 4.72615 13.7273 4.85027 13.7348 4.84952C13.7423 4.84727 14.1777 4.85102 14.1777 4.85102C14.1777 4.85102 14.6855 4.58552 14.6975 4.57202C14.7106 4.55852 14.8085 4.4134 14.8085 4.4134L14.4155 4.42577L13.985 4.27802L13.838 4.14565L13.6527 4.0459L13.5939 4.2514Z" fill="white"/>
<path d="M13.1326 3.72785L13.1716 4.3616C13.1716 4.3616 13.3186 4.29898 13.3388 4.29223C13.3598 4.28473 13.5811 4.23898 13.5811 4.23898C13.5811 4.23898 13.7648 4.30685 13.7716 4.30535C13.7779 4.3046 13.8113 4.24873 13.8113 4.24873L13.8957 3.8861L13.8856 3.7121L13.6981 3.59473L13.4539 3.59998C13.4539 3.59998 13.2642 3.64273 13.2499 3.6551C13.2118 3.68091 13.1726 3.70518 13.1326 3.72785Z" fill="#E6E7E8"/>
<path d="M14.5811 4.35882C14.2931 4.35582 14.0598 4.26732 13.8821 4.09669L13.9256 3.93807C13.9365 3.89989 13.9443 3.86089 13.9488 3.82144C13.9538 3.78045 13.9484 3.73884 13.9331 3.70049C13.9178 3.66214 13.893 3.62829 13.8611 3.60207C13.7947 3.54394 13.7062 3.51432 13.5971 3.51282C13.4388 3.50982 13.2862 3.56157 13.1377 3.66807C13.1414 3.70782 13.1444 3.74757 13.1471 3.78769C13.3169 3.68644 13.4579 3.63732 13.5701 3.63882C13.6668 3.64032 13.7444 3.66394 13.8018 3.71119C13.829 3.73124 13.8505 3.75815 13.8639 3.78918C13.8773 3.82021 13.8823 3.85424 13.8783 3.88782C13.8727 3.93161 13.8635 3.97487 13.8509 4.01719L13.7883 4.24069C13.7403 4.19344 13.6728 4.16982 13.5858 4.16757C13.4576 4.16607 13.3271 4.21257 13.1947 4.30557C13.1977 4.34757 13.2007 4.38844 13.2022 4.43119C13.3263 4.33519 13.4497 4.28794 13.5749 4.28944L13.4767 4.73382C13.4643 4.78332 13.4898 4.82457 13.5536 4.85869C13.6162 4.89319 13.6998 4.90969 13.8059 4.91119C14.0438 4.91518 14.2783 4.85563 14.4854 4.73869C14.6992 4.62057 14.8942 4.44469 15.0712 4.21294C14.9249 4.31307 14.7618 4.36182 14.5811 4.35882ZM13.6278 4.29694C13.7114 4.31757 13.7504 4.35282 13.7452 4.40457C13.7407 4.44732 13.6957 4.49082 13.6094 4.53619C13.5975 4.54244 13.5856 4.54881 13.5738 4.55532L13.6278 4.29694ZM13.7984 4.78557C13.7156 4.78407 13.6537 4.77357 13.6139 4.75219C13.5749 4.73082 13.5566 4.69969 13.5607 4.65919C13.5628 4.64333 13.5701 4.62859 13.5813 4.61719L13.6308 4.59057C13.7178 4.54632 13.7673 4.50507 13.7789 4.46794L13.8491 4.22719C14.0234 4.39407 14.2567 4.48107 14.5488 4.48482C14.5724 4.48482 14.6122 4.48407 14.6669 4.47957C14.4247 4.68457 14.1157 4.79346 13.7984 4.78557Z" fill="#D0D2D3"/>
<path d="M13.3778 5.88858C13.3808 5.92233 13.3366 5.95796 13.2803 5.96808C13.2252 5.97858 13.1787 5.95946 13.1757 5.92458L13.0354 3.66333C13.0339 3.62921 13.0774 3.59321 13.1329 3.58346C13.1888 3.57333 13.2361 3.59321 13.2383 3.62696L13.3778 5.88821" fill="#A6A8AB"/>
<path d="M13.2772 5.90623L13.137 3.64498C13.1355 3.62211 13.1546 3.59923 13.185 3.58161C13.1675 3.57915 13.1497 3.57966 13.1325 3.58311C13.0773 3.59286 13.0334 3.62886 13.0349 3.66298L13.1752 5.92423C13.1782 5.95911 13.2247 5.97823 13.2798 5.96773C13.2974 5.9646 13.3144 5.95865 13.3301 5.95011C13.3001 5.94448 13.2779 5.92836 13.2772 5.90548" fill="#939292"/>
<path d="M3.93613 6.66224L3.89038 7.07099C3.89038 7.07099 4.06513 7.17299 4.07188 7.17149C4.07863 7.16999 4.45138 7.16249 4.45138 7.16249C4.45138 7.16249 4.88113 6.92024 4.89126 6.90936C4.90176 6.89849 4.97976 6.77061 4.97976 6.77061L4.64526 6.79049L4.27176 6.67536L4.14238 6.56624L3.98076 6.48486L3.93613 6.66224Z" fill="#F7941E"/>
<path d="M3.52881 6.22493L3.57831 6.7683L3.72006 6.70343C3.73693 6.69743 3.92593 6.65318 3.92593 6.65318C3.92593 6.65318 4.08456 6.70568 4.09131 6.70493C4.09581 6.70343 4.12468 6.65468 4.12468 6.65468L4.18731 6.3423L4.17418 6.19268L4.01031 6.09668L3.80068 6.1083C3.80068 6.1083 3.63831 6.14955 3.62706 6.16005C3.5948 6.18241 3.56204 6.20404 3.52881 6.22493Z" fill="#F7941E"/>
<path d="M4.78662 6.73088C4.53912 6.73463 4.33774 6.66525 4.17987 6.52275L4.21362 6.38625C4.22262 6.345 4.22862 6.31088 4.23049 6.285C4.23374 6.24994 4.22817 6.21463 4.21428 6.18227C4.2004 6.14992 4.17864 6.12155 4.15099 6.09975C4.09099 6.051 4.01524 6.02738 3.92149 6.02888C3.78574 6.03113 3.65637 6.07988 3.53149 6.17363C3.53524 6.20738 3.53899 6.2415 3.54199 6.276C3.68524 6.18525 3.80562 6.1395 3.90087 6.138C3.98449 6.135 4.05237 6.15413 4.10262 6.1935C4.12621 6.21041 4.14501 6.23316 4.15717 6.25952C4.16933 6.28588 4.17444 6.31495 4.17199 6.34388C4.16832 6.38147 4.16168 6.41871 4.15212 6.45525L4.10412 6.64875C4.06137 6.609 4.00287 6.59063 3.92824 6.59138C3.81837 6.59363 3.70774 6.63563 3.59674 6.71963L3.60537 6.82688C3.70887 6.74175 3.81349 6.6975 3.92149 6.696L3.84762 7.07925C3.83937 7.122 3.86224 7.15688 3.91699 7.18463C3.97174 7.212 4.04524 7.22513 4.13562 7.22438C4.3395 7.22088 4.53879 7.16329 4.71312 7.0575C4.89462 6.951 5.05849 6.79613 5.20324 6.5925C5.08242 6.68137 4.93661 6.7298 4.78662 6.73088ZM3.96799 6.7005C4.03962 6.71663 4.07337 6.74625 4.07037 6.78975C4.06887 6.82613 4.03062 6.86588 3.95824 6.90713C3.94758 6.91193 3.93719 6.91731 3.92712 6.92325L3.96799 6.7005ZM4.12512 7.11525C4.05499 7.11675 4.00174 7.1085 3.96724 7.09163C3.93237 7.074 3.91699 7.04888 3.91849 7.01213C3.92044 6.99898 3.92603 6.98664 3.93462 6.9765C3.95374 6.96638 3.96799 6.95813 3.97662 6.95288C4.05124 6.91313 4.09099 6.876 4.10074 6.84375L4.15474 6.63488C4.30887 6.77513 4.51137 6.84225 4.76149 6.83925C4.78212 6.8385 4.81624 6.83625 4.86312 6.83175C4.66018 7.0135 4.39755 7.11439 4.12512 7.11525Z" fill="#D0D2D3"/>
<path d="M3.79266 8.07288C3.79566 8.1025 3.76041 8.13438 3.71241 8.14375C3.66366 8.15425 3.62316 8.13775 3.62016 8.1085L3.44316 6.17425C3.44166 6.14313 3.47766 6.112 3.52566 6.10263C3.57291 6.09213 3.61341 6.10788 3.61641 6.13713L3.79266 8.07288Z" fill="#A6A8AB"/>
<path d="M3.70732 8.08802L3.52919 6.15227C3.52844 6.13314 3.54419 6.11252 3.56894 6.09714C3.55439 6.09521 3.53959 6.09623 3.52544 6.10014C3.47744 6.10952 3.44107 6.14064 3.44294 6.17177L3.61994 8.10602C3.62294 8.13564 3.66344 8.15177 3.71219 8.14127C3.72701 8.13834 3.74122 8.13288 3.75419 8.12514C3.72794 8.12177 3.70882 8.1079 3.70732 8.08802Z" fill="#939292"/>
<path d="M8.25383 5.07514L8.21558 5.42726C8.21558 5.42726 8.3652 5.51501 8.3712 5.51351C8.3772 5.51201 8.6982 5.50526 8.6982 5.50526C8.6982 5.50526 9.0687 5.29789 9.0777 5.28814C9.0867 5.27801 9.15533 5.16776 9.15533 5.16776L8.86583 5.18464L8.54333 5.08489L8.4327 4.99114L8.2932 4.92139L8.25383 5.07514Z" fill="#F7941E"/>
<path d="M7.90137 4.69793L7.94412 5.16593C7.94412 5.16593 8.05099 5.11643 8.06599 5.11043C8.08174 5.10443 8.24487 5.06693 8.24487 5.06693C8.24487 5.06693 8.38137 5.11268 8.38662 5.11193C8.39112 5.11043 8.41549 5.06768 8.41549 5.06768L8.47024 4.79881L8.45787 4.66981L8.31687 4.58618L8.13687 4.59668C8.13687 4.59668 7.99662 4.63193 7.98724 4.64168C7.97599 4.65143 7.90137 4.69793 7.90137 4.69793Z" fill="#F7941E"/>
<path d="M8.98837 5.13409C8.77574 5.13709 8.60099 5.07709 8.46562 4.95409L8.49374 4.83671C8.50274 4.80109 8.50724 4.77259 8.50874 4.74896C8.51176 4.71894 8.50712 4.68865 8.49525 4.66091C8.48338 4.63317 8.46467 4.60889 8.44087 4.59034C8.38421 4.54677 8.31387 4.52483 8.24249 4.52846C8.12512 4.53071 8.01374 4.57196 7.90649 4.65334L7.91549 4.74184C8.03887 4.66346 8.14274 4.62371 8.22562 4.62221C8.29649 4.62071 8.35537 4.63684 8.39812 4.67096C8.41869 4.68541 8.43512 4.70499 8.44578 4.72775C8.45643 4.75051 8.46095 4.77567 8.45887 4.80071C8.45662 4.82434 8.45137 4.85696 8.44199 4.89671L8.39999 5.06359C8.35825 5.0281 8.30428 5.01034 8.24962 5.01409C8.15437 5.01559 8.05912 5.05271 7.96312 5.12396C7.96537 5.15509 7.96912 5.18621 7.97099 5.21696C8.05949 5.14309 8.15062 5.10559 8.24287 5.10484L8.18024 5.43409C8.17274 5.47121 8.19187 5.50196 8.23912 5.52559C8.28637 5.54921 8.34974 5.56046 8.42737 5.55971C8.60328 5.55717 8.77533 5.50771 8.92574 5.41646C9.08212 5.32496 9.22237 5.19034 9.34874 5.01484C9.24224 5.09209 9.12187 5.13109 8.98837 5.13409ZM8.28262 5.10821C8.34412 5.12096 8.37337 5.14721 8.37037 5.18434C8.36887 5.21659 8.33662 5.24996 8.27362 5.28484C8.26687 5.28934 8.25787 5.29346 8.24699 5.30059L8.28262 5.10821ZM8.41837 5.46634C8.37168 5.4691 8.32493 5.46208 8.28112 5.44571C8.25149 5.42996 8.23837 5.40709 8.23987 5.37709C8.23987 5.36696 8.24587 5.35646 8.25412 5.34596C8.27099 5.33621 8.28299 5.32909 8.29049 5.32534C8.35387 5.29046 8.38949 5.25971 8.39662 5.23159L8.44387 5.05159C8.57662 5.17196 8.75099 5.23046 8.96662 5.22746C8.98424 5.22671 9.01462 5.22521 9.05512 5.22146C8.87964 5.3777 8.65331 5.46474 8.41837 5.46634Z" fill="#D0D2D3"/>
<path d="M8.13152 6.29015C8.13377 6.31528 8.10339 6.3434 8.06139 6.3524C8.02014 6.36028 7.98452 6.3464 7.98339 6.32203L7.82964 4.6529C7.82814 4.62703 7.85927 4.59965 7.90052 4.59065C7.94102 4.58278 7.97739 4.5959 7.98002 4.62178L8.13152 6.29015Z" fill="#A6A8AB"/>
<path d="M8.05678 6.30625L7.90453 4.63638C7.90303 4.6195 7.91653 4.60262 7.93865 4.58912C7.92579 4.58742 7.91272 4.58792 7.90003 4.59062C7.85878 4.59962 7.82765 4.627 7.82915 4.65287L7.9829 6.322C7.9844 6.34637 8.01965 6.36062 8.0609 6.35237C8.07389 6.34941 8.0863 6.34434 8.09765 6.33737C8.0759 6.33437 8.05903 6.32313 8.05678 6.30625Z" fill="#939292"/>
<path d="M12.0336 4.37877L11.9995 4.68065C11.9995 4.68065 12.1281 4.75452 12.133 4.75377C12.1379 4.75302 12.4128 4.74702 12.4128 4.74702C12.4128 4.74702 12.7289 4.5689 12.7375 4.56102C12.7454 4.55315 12.8028 4.45865 12.8028 4.45865L12.556 4.47402L12.2811 4.38777L12.1859 4.3079L12.0663 4.24902L12.0336 4.37877Z" fill="#F7941E"/>
<path d="M11.7336 4.05778L11.7704 4.45716C11.7704 4.45716 11.8619 4.41441 11.8746 4.40916C11.8878 4.40466 12.0273 4.37203 12.0273 4.37203C12.0273 4.37203 12.1439 4.41103 12.1484 4.41066C12.1529 4.40916 12.1735 4.37353 12.1735 4.37353L12.2193 4.14328L12.2099 4.03341L12.088 3.96216L11.9343 3.97078C11.9343 3.97078 11.8146 4.00041 11.806 4.00941C11.797 4.01728 11.7336 4.05778 11.7336 4.05778Z" fill="#F7941E"/>
<path d="M12.6605 4.42902C12.479 4.43277 12.3297 4.38102 12.2138 4.2764L12.2382 4.17515C12.2457 4.14477 12.2498 4.11965 12.2513 4.10052C12.2536 4.07478 12.2494 4.04887 12.2392 4.02516C12.2289 4.00145 12.2128 3.98069 12.1925 3.96477C12.1444 3.92654 12.0838 3.9078 12.0226 3.91227C11.918 3.9156 11.8174 3.953 11.7361 4.01877C11.7383 4.04465 11.7406 4.06902 11.7436 4.0949C11.8493 4.02702 11.9378 3.9944 12.0087 3.99252C12.0612 3.98892 12.1134 4.00348 12.1565 4.03377C12.1741 4.04616 12.1881 4.06299 12.197 4.08256C12.206 4.10213 12.2096 4.12373 12.2075 4.14515C12.2048 4.17263 12.2 4.19985 12.1928 4.22652L12.1587 4.36977C12.1225 4.3392 12.0758 4.32411 12.0286 4.32777C11.9476 4.32852 11.8655 4.36002 11.7837 4.42152L11.7912 4.50027C11.8673 4.43765 11.945 4.40577 12.0237 4.40352L11.9697 4.68702C11.963 4.71815 11.9798 4.74477 12.0207 4.7654C12.0612 4.78452 12.1145 4.79502 12.1816 4.79352C12.3316 4.79052 12.4741 4.75077 12.6076 4.6709C12.7403 4.59252 12.8607 4.47815 12.9676 4.32815C12.8785 4.39347 12.7709 4.42879 12.6605 4.42902ZM12.0571 4.40765C12.1103 4.41965 12.1351 4.44102 12.1332 4.47252C12.131 4.4999 12.1036 4.52877 12.0496 4.55952C12.0417 4.56296 12.034 4.56697 12.0267 4.57152L12.0571 4.40765ZM12.1737 4.71327C12.1338 4.71636 12.0936 4.71033 12.0563 4.69565C12.0312 4.6829 12.0192 4.66302 12.0207 4.6379C12.0207 4.62852 12.026 4.61952 12.0335 4.61052L12.0638 4.5929C12.1186 4.56327 12.149 4.53777 12.1553 4.51265L12.1943 4.3589C12.3087 4.4624 12.4568 4.5119 12.6421 4.50965C12.6571 4.50965 12.6818 4.5074 12.7167 4.5044C12.5672 4.63786 12.3741 4.71214 12.1737 4.71327Z" fill="#D0D2D3"/>
<path d="M11.9279 5.41801C11.9302 5.44014 11.9043 5.46376 11.869 5.47051C11.8334 5.47839 11.8027 5.46676 11.8012 5.44539L11.671 4.01851C11.6688 3.99714 11.6962 3.97351 11.731 3.96676C11.7655 3.95926 11.7967 3.96976 11.7982 3.99189L11.9279 5.41801Z" fill="#A6A8AB"/>
<path d="M11.8653 5.43289L11.7344 4.00601C11.7329 3.99214 11.7445 3.97639 11.7625 3.96551C11.752 3.96376 11.7412 3.96453 11.731 3.96776C11.6962 3.97451 11.6688 3.99814 11.671 4.01951L11.8012 5.44639C11.8027 5.46776 11.8334 5.47939 11.869 5.47151C11.8798 5.46895 11.8902 5.46518 11.9002 5.46026C11.8807 5.45651 11.866 5.44714 11.8653 5.43289Z" fill="#939292"/>
<path d="M2.53652 7.44599L2.44727 8.07337C2.44727 8.07337 2.71164 8.23574 2.72177 8.23424C2.73189 8.23274 3.30564 8.23724 3.30564 8.23724C3.30564 8.23724 3.97502 7.88587 3.99152 7.86974C4.00839 7.85212 4.13702 7.66012 4.13702 7.66012L3.61877 7.67587L3.05177 7.48162L2.85752 7.30724L2.61339 7.17749L2.53652 7.44599Z" fill="white"/>
<path d="M1.92969 6.75667L1.98144 7.59367C1.98144 7.59367 2.17494 7.51004 2.20119 7.50067C2.22856 7.49092 2.52031 7.43204 2.52031 7.43204C2.52031 7.43204 2.76256 7.51979 2.77194 7.51829C2.77944 7.51754 2.82519 7.44292 2.82519 7.44292L2.93581 6.96629L2.92081 6.73604L2.67519 6.58154L2.35194 6.58904C2.35194 6.58904 2.10219 6.64567 2.08306 6.66142C2.06469 6.67754 1.92969 6.75667 1.92969 6.75667Z" fill="#E6E7E8"/>
<path d="M3.83937 7.58924C3.45912 7.58474 3.15199 7.46886 2.91762 7.24311L2.97537 7.03424C2.99149 6.97199 3.00199 6.92211 3.00649 6.88049C3.01303 6.82644 3.00583 6.77162 2.98558 6.72109C2.96533 6.67056 2.93267 6.62594 2.89062 6.59136C2.80287 6.51449 2.68699 6.47474 2.54224 6.47324C2.33487 6.47024 2.13237 6.53811 1.93774 6.67761C1.94149 6.73086 1.94449 6.78299 1.94974 6.83474C2.17249 6.70274 2.35999 6.63711 2.50699 6.63936C2.63487 6.64011 2.73649 6.67236 2.81337 6.73461C2.88874 6.79611 2.92212 6.87336 2.91312 6.96786C2.90937 7.01061 2.89624 7.06836 2.87749 7.13849L2.79424 7.43324C2.73087 7.37099 2.64199 7.33949 2.52762 7.33724C2.35849 7.33574 2.18674 7.39611 2.01162 7.51874C2.01612 7.57386 2.01912 7.62937 2.02212 7.68562C2.18524 7.55849 2.34837 7.49662 2.51224 7.49812L2.38287 8.08424C2.36599 8.14911 2.40124 8.20387 2.48412 8.24812C2.56774 8.29312 2.67762 8.31599 2.81787 8.31824C3.13103 8.32271 3.43978 8.24403 3.71262 8.09024C3.99612 7.93424 4.25299 7.70324 4.48624 7.39686C4.29661 7.52825 4.06998 7.59565 3.83937 7.58924ZM2.58237 7.50824C2.69299 7.53411 2.74324 7.58061 2.73724 7.64849C2.73199 7.70436 2.67162 7.76361 2.55874 7.82249C2.54599 7.82849 2.53062 7.83749 2.51074 7.84837L2.58237 7.50824ZM2.80662 8.15174C2.69749 8.15024 2.61687 8.13562 2.56437 8.10749C2.51112 8.07937 2.48824 8.03886 2.49349 7.98486C2.49615 7.96377 2.5061 7.94427 2.52162 7.92974C2.54974 7.91399 2.57187 7.90237 2.58499 7.89524C2.70087 7.83674 2.76499 7.78311 2.77999 7.73286L2.87224 7.41524C3.10249 7.63649 3.41037 7.75049 3.79549 7.75574C3.82662 7.75574 3.87837 7.75349 3.95187 7.74974C3.63215 8.01933 3.22469 8.16236 2.80662 8.15174Z" fill="#D0D2D3"/>
<path d="M2.25378 9.60671C2.25678 9.65246 2.19903 9.69971 2.12516 9.71283C2.05128 9.72633 1.98941 9.70121 1.98641 9.65546L1.80266 6.67458C1.79891 6.62883 1.85816 6.58158 1.93053 6.56846C2.00441 6.55496 2.06628 6.58158 2.06928 6.62658L2.25378 9.60671Z" fill="#A6A8AB"/>
<path d="M2.12017 9.62992L1.93567 6.64905C1.93267 6.61867 1.95855 6.58717 1.99792 6.56655C1.97545 6.56278 1.95251 6.56278 1.93005 6.56655C1.85767 6.57967 1.79842 6.62692 1.80217 6.67267L1.98592 9.65355C1.98892 9.6993 2.0508 9.72442 2.12467 9.71092C2.14786 9.70684 2.17026 9.69912 2.19105 9.68805C2.15017 9.68055 2.12167 9.65917 2.12017 9.62992Z" fill="#939292"/>
<path d="M5.68125 5.9489L5.625 6.35353C5.625 6.35353 5.79488 6.4589 5.80125 6.45815C5.808 6.45665 6.18 6.45965 6.18 6.45965C6.18 6.45965 6.61275 6.23315 6.62363 6.2219C6.63412 6.21178 6.71662 6.08765 6.71662 6.08765L6.38138 6.0974L6.015 5.97103L5.88975 5.8589L5.73187 5.7749L5.682 5.9489" fill="white"/>
<path d="M5.29126 5.50376L5.32464 6.04339C5.32464 6.04339 5.44951 5.99014 5.46714 5.98451C5.48476 5.97776 5.67376 5.94026 5.67376 5.94026C5.67376 5.94026 5.83013 5.99689 5.83613 5.99614C5.84063 5.99464 5.86988 5.94739 5.86988 5.94739L5.94151 5.63876L5.93213 5.48989L5.77276 5.39014L5.56463 5.39539C5.56463 5.39539 5.40376 5.43139 5.39063 5.44114C5.37863 5.45201 5.29126 5.50376 5.29126 5.50376Z" fill="#E6E7E8"/>
<path d="M6.52419 6.04198C6.27931 6.03898 6.07981 5.96398 5.92944 5.81848L5.96469 5.68348C5.97594 5.64298 5.98306 5.60961 5.98531 5.58298C5.98964 5.5482 5.98506 5.51288 5.97201 5.48035C5.95896 5.44781 5.93786 5.41913 5.91069 5.39698C5.85369 5.34673 5.77831 5.32161 5.68531 5.32011C5.55106 5.31861 5.42094 5.36211 5.29419 5.45211C5.29644 5.48698 5.30019 5.52073 5.30206 5.55411C5.44606 5.46823 5.56719 5.42548 5.66206 5.42698C5.74569 5.42773 5.81056 5.44836 5.86006 5.48848C5.88284 5.50603 5.90071 5.52916 5.91194 5.55563C5.92318 5.58211 5.92739 5.61103 5.92419 5.63961C5.9193 5.67669 5.91191 5.7134 5.90206 5.74948L5.84731 5.94073C5.80681 5.90023 5.74906 5.87923 5.67594 5.87848C5.56606 5.87623 5.45469 5.91636 5.34144 5.99586C5.34444 6.03148 5.34669 6.06673 5.34819 6.10311C5.45281 6.02136 5.55856 5.98123 5.66544 5.98198L5.58144 6.36073C5.57094 6.40273 5.59306 6.43761 5.64781 6.46686C5.70106 6.49648 5.77194 6.51111 5.86194 6.51186C6.06441 6.51478 6.26404 6.46407 6.44056 6.36486C6.62356 6.26361 6.78969 6.11473 6.94081 5.91673C6.8187 6.00152 6.67282 6.04538 6.52419 6.04198ZM5.71194 5.98911C5.78281 6.00598 5.81544 6.03636 5.81244 6.08061C5.80794 6.11698 5.76894 6.15373 5.69581 6.19273C5.68831 6.19573 5.67819 6.20136 5.66469 6.20886L5.71194 5.98911ZM5.85706 6.40536C5.78619 6.40386 5.73444 6.39523 5.70069 6.37723C5.66656 6.35886 5.65194 6.33148 5.65494 6.29661C5.65753 6.28348 5.66362 6.2713 5.67256 6.26136C5.69094 6.25161 5.70481 6.24373 5.71381 6.23848C5.78919 6.20136 5.83081 6.16611 5.84019 6.13423L5.89906 5.92911C6.04831 6.07161 6.24669 6.14548 6.49644 6.14811C6.51556 6.14811 6.54969 6.14736 6.59769 6.14511C6.3909 6.31942 6.12744 6.41199 5.85706 6.40536Z" fill="#D0D2D3"/>
<path d="M5.49819 7.34433C5.50119 7.37396 5.46444 7.40433 5.41569 7.41296C5.36844 7.42083 5.32869 7.40508 5.32719 7.37508L5.20756 5.44833C5.20606 5.41946 5.24281 5.38908 5.29006 5.38046C5.33881 5.37183 5.37781 5.38833 5.38006 5.41833L5.49819 7.34433Z" fill="#A6A8AB"/>
<path d="M5.41269 7.35968L5.29456 5.43368C5.29231 5.41456 5.30919 5.39393 5.33431 5.38043C5.31972 5.37742 5.30466 5.37742 5.29006 5.38043C5.24281 5.38906 5.20606 5.41943 5.20756 5.44831L5.32719 7.37506C5.32869 7.40468 5.36844 7.42081 5.41569 7.41293C5.43106 7.41049 5.44582 7.40514 5.45919 7.39718C5.43219 7.39306 5.41419 7.37918 5.41269 7.35968Z" fill="#939292"/>
<path d="M10.4723 4.41079L10.4236 4.76367C10.4236 4.76367 10.5721 4.85667 10.5777 4.85517C10.5837 4.85442 10.9077 4.85742 10.9077 4.85742C10.9077 4.85742 11.2865 4.65867 11.294 4.64929C11.3045 4.64029 11.3757 4.53192 11.3757 4.53192L11.0836 4.54054L10.7633 4.42992L10.655 4.33242L10.517 4.25854L10.4723 4.41079Z" fill="white"/>
<path d="M10.1326 4.02213L10.1607 4.49313C10.1607 4.49313 10.2702 4.44663 10.2863 4.44138C10.3017 4.43538 10.4659 4.40276 10.4659 4.40276C10.4659 4.40276 10.6024 4.45151 10.6077 4.45151C10.6114 4.45001 10.6381 4.40876 10.6381 4.40876L10.7007 4.13913L10.6924 4.01013L10.5529 3.92163L10.3703 3.92651C10.3703 3.92651 10.2293 3.95876 10.2188 3.96776C10.2079 3.97638 10.1326 4.02213 10.1326 4.02213Z" fill="#E6E7E8"/>
<path d="M11.208 4.49167C10.9939 4.48867 10.8207 4.42305 10.6875 4.2963L10.7198 4.17892C10.7288 4.1433 10.7355 4.1148 10.7374 4.09117C10.7408 4.06075 10.7366 4.02996 10.7253 4.00151C10.714 3.97307 10.6959 3.94784 10.6725 3.92805C10.6171 3.88335 10.5476 3.85982 10.4764 3.86167C10.3583 3.86017 10.2447 3.8988 10.134 3.9768C10.137 4.00792 10.1393 4.03755 10.1415 4.06605C10.2668 3.99142 10.3733 3.95467 10.4558 3.95542C10.5282 3.95617 10.5859 3.9738 10.6287 4.00942C10.6489 4.02428 10.6648 4.0443 10.6746 4.06739C10.6844 4.09048 10.6879 4.1158 10.6845 4.14067C10.6823 4.1658 10.6759 4.19692 10.6647 4.23667L10.6182 4.40355C10.5829 4.3683 10.5323 4.3503 10.4678 4.34955C10.3725 4.34805 10.275 4.38255 10.1768 4.45117C10.1783 4.48305 10.1805 4.5138 10.1828 4.54492C10.2743 4.47405 10.3658 4.4388 10.4588 4.4403L10.3857 4.76955C10.3763 4.80742 10.3962 4.83742 10.4434 4.86255C10.4899 4.88842 10.5533 4.90117 10.6317 4.9023C10.8079 4.9053 10.9763 4.8618 11.1357 4.77367C11.2958 4.68517 11.4405 4.55505 11.5729 4.38255C11.4656 4.45599 11.338 4.49413 11.208 4.49167ZM10.4989 4.44442C10.5612 4.46055 10.5904 4.48567 10.5859 4.52505C10.5837 4.55655 10.5495 4.58917 10.4854 4.6233C10.4779 4.6263 10.47 4.63117 10.4588 4.63792L10.4989 4.44442ZM10.6257 4.8093C10.5638 4.8078 10.518 4.8003 10.4884 4.78342C10.4588 4.76767 10.4457 4.7448 10.4494 4.7148C10.4507 4.70263 10.4563 4.69132 10.4652 4.68292C10.4805 4.67505 10.4925 4.66755 10.5012 4.66305C10.5653 4.6308 10.6024 4.60042 10.611 4.57305L10.6628 4.39305C10.7929 4.5183 10.9662 4.58205 11.184 4.58505C11.2017 4.58505 11.2305 4.5843 11.2725 4.58205C11.0914 4.73335 10.8616 4.81406 10.6257 4.8093Z" fill="#D0D2D3"/>
<path d="M10.3126 5.62867C10.3148 5.6538 10.2822 5.68042 10.2402 5.6883C10.199 5.6958 10.1633 5.6808 10.1622 5.6553L10.0587 3.9738C10.0565 3.94867 10.0898 3.92205 10.1311 3.9138C10.1723 3.9063 10.208 3.9213 10.2087 3.94717L10.3126 5.62867Z" fill="#A6A8AB"/>
<path d="M10.2383 5.6418L10.1345 3.9603C10.133 3.94418 10.1468 3.92655 10.169 3.9138C10.1564 3.91155 10.1436 3.91155 10.1311 3.9138C10.0898 3.92205 10.0565 3.94868 10.0587 3.9738L10.1622 5.6553C10.1637 5.68118 10.199 5.6958 10.2402 5.6883C10.2531 5.68595 10.2656 5.68178 10.2773 5.67593C10.2552 5.67143 10.2391 5.65905 10.2383 5.6418Z" fill="#939292"/>
<path d="M11.2536 14.9756L11.3886 15.7387C11.3886 15.7387 11.0729 15.9513 11.0609 15.9498C11.0478 15.9483 10.3446 15.9794 10.3446 15.9794C10.3446 15.9794 9.50763 15.5778 9.48626 15.5579C9.46488 15.5377 9.30176 15.3082 9.30176 15.3082L9.93438 15.3037L10.6221 15.0401L10.8524 14.8203L11.1464 14.6482L11.2536 14.9756Z" fill="#F7941E"/>
<path d="M11.9675 14.1029L11.9417 15.1311C11.9417 15.1311 11.7002 15.0374 11.6672 15.0273C11.6327 15.0171 11.2723 14.9579 11.2723 14.9579C11.2723 14.9579 10.9802 15.0756 10.9697 15.0749C10.9595 15.0734 10.9003 14.9845 10.9003 14.9845L10.7432 14.4048L10.751 14.122L11.0469 13.9203L11.4418 13.9158C11.4418 13.9158 11.7512 13.9735 11.7755 13.9926C11.7992 14.0129 11.9675 14.1029 11.9675 14.1029Z" fill="#F7941E"/>
<path d="M8.86206 15.001C9.16169 15.3658 9.48794 15.637 9.84156 15.8166C10.1952 15.9962 10.5642 16.0772 10.9489 16.0573C11.1188 16.0495 11.2553 16.0153 11.3551 15.9576C11.4548 15.898 11.4938 15.829 11.4717 15.7495L11.2864 15.0385C11.4886 15.0276 11.6918 15.097 11.8962 15.2455C11.8969 15.1768 11.8999 15.109 11.9014 15.0415C11.6817 14.8993 11.4687 14.8311 11.2609 14.8423C11.1222 14.8491 11.0142 14.8915 10.9384 14.9717L10.8237 14.6128C10.8017 14.5451 10.7844 14.4759 10.7719 14.4058C10.7634 14.3515 10.7695 14.2959 10.7894 14.2447C10.8094 14.1934 10.8426 14.1484 10.8856 14.1141C10.9748 14.0353 11.0997 13.9918 11.2561 13.9843C11.4361 13.9765 11.6689 14.0477 11.9487 14.2003C11.9509 14.1362 11.9532 14.0713 11.9562 14.0061C11.7106 13.8445 11.4608 13.7695 11.2062 13.7818C11.0292 13.7912 10.8882 13.8445 10.7832 13.9442C10.6801 14.041 10.6369 14.1613 10.6549 14.302C10.6624 14.3518 10.6778 14.4145 10.6999 14.4898L10.7794 14.7437C10.5012 15.0302 10.1292 15.187 9.66381 15.2087C9.38155 15.226 9.10107 15.1533 8.86281 15.001M11.3056 15.4675C11.2855 15.4571 11.2653 15.4473 11.2448 15.4378C11.1031 15.37 11.0262 15.3013 11.0176 15.2323C11.0074 15.1506 11.0686 15.091 11.2006 15.0527L11.3056 15.4675ZM9.53181 15.4097C9.62106 15.4112 9.68594 15.4112 9.72531 15.4097C10.1963 15.3865 10.5691 15.2331 10.8409 14.9518L10.9692 15.3373C10.9898 15.3977 11.0712 15.4615 11.2144 15.5278C11.2321 15.5357 11.2602 15.5503 11.2962 15.5676C11.3145 15.5854 11.3271 15.6082 11.3326 15.6332C11.3404 15.6996 11.3134 15.7513 11.2504 15.7873C11.1871 15.8245 11.0888 15.8466 10.9557 15.8526C10.4273 15.8792 9.95331 15.7315 9.53181 15.4097Z" fill="#E5851C"/>
<path d="M11.6963 17.6111C11.6948 17.6658 11.7657 17.7221 11.8572 17.7352C11.9487 17.7476 12.0241 17.7131 12.0256 17.6568L12.1216 13.9946C12.1201 13.9387 12.0484 13.8824 11.9577 13.8701C11.8677 13.8573 11.7916 13.8922 11.7908 13.9481L11.6963 17.6111Z" fill="#A6A8AB"/>
<path d="M11.8612 17.6339L11.9565 13.9709C11.9565 13.933 11.925 13.897 11.8762 13.8712C11.9036 13.8661 11.9316 13.8656 11.9591 13.8697C12.0498 13.882 12.1215 13.9383 12.123 13.9942L12.027 17.6564C12.0255 17.7127 11.9501 17.7472 11.8586 17.7348C11.8303 17.7308 11.8029 17.7219 11.7776 17.7085C11.826 17.698 11.8612 17.6718 11.8612 17.6339Z" fill="#939292"/>
<path d="M21.525 10.0712L21.6446 10.7451C21.6446 10.7451 21.3664 10.9326 21.3551 10.9311C21.3435 10.9296 20.724 10.957 20.724 10.957C20.724 10.957 19.9849 10.6033 19.9665 10.585C19.947 10.5681 19.803 10.3652 19.803 10.3652L20.3617 10.3615L20.9685 10.1297L21.1702 9.9347L21.4305 9.7832L21.525 10.0712Z" fill="#F7941E"/>
<path d="M22.1513 9.30208L22.1281 10.2092C22.1281 10.2092 21.9147 10.1267 21.8858 10.1177C21.8554 10.1083 21.5371 10.0566 21.5371 10.0566C21.5371 10.0566 21.2794 10.1605 21.2701 10.1597C21.2607 10.1582 21.2086 10.0802 21.2086 10.0802L21.0698 9.5687L21.0777 9.31895L21.3387 9.1412L21.6874 9.13745C21.6874 9.13745 21.9601 9.18845 21.9811 9.20458C22.0028 9.2222 22.1513 9.30208 22.1513 9.30208Z" fill="#F7941E"/>
<path d="M19.4126 10.0935C19.677 10.416 19.965 10.656 20.2766 10.8139C20.5886 10.9718 20.9141 11.0427 21.2531 11.0258C21.4038 11.0183 21.5235 10.9883 21.6105 10.938C21.6997 10.8848 21.7346 10.8244 21.7151 10.755L21.5512 10.1277C21.7301 10.1179 21.9082 10.1794 22.0893 10.3092C22.0901 10.2492 22.0916 10.1895 22.0931 10.1295C21.8996 10.0035 21.7113 9.94428 21.5283 9.95403C21.4053 9.95928 21.3108 9.99678 21.2433 10.0684L21.1421 9.75191C21.1229 9.69228 21.1079 9.63138 21.0971 9.56966C21.09 9.52175 21.0954 9.47282 21.1129 9.42765C21.1304 9.38249 21.1593 9.34265 21.1968 9.31203C21.2767 9.24266 21.3858 9.20441 21.5238 9.19766C21.6836 9.19016 21.888 9.25391 22.1343 9.38891C22.1373 9.33228 22.1388 9.27453 22.1418 9.21716C21.9251 9.07466 21.705 9.00828 21.4788 9.01953C21.3232 9.02816 21.1983 9.07541 21.1061 9.16278C21.0624 9.2018 21.0292 9.25113 21.0095 9.30629C20.9898 9.36145 20.9842 9.42066 20.9932 9.47853C20.9992 9.52203 21.0131 9.57753 21.0322 9.64391L21.1027 9.86778C20.8578 10.1209 20.5293 10.2582 20.1187 10.2788C19.8697 10.2934 19.6224 10.2285 19.4126 10.0935ZM21.5666 10.5053C21.5445 10.4937 21.5261 10.4854 21.5141 10.4794C21.3885 10.4198 21.3206 10.359 21.3135 10.2987C21.3037 10.2263 21.3577 10.1734 21.4751 10.1393L21.5666 10.5053ZM20.0025 10.455C20.0812 10.4558 20.1378 10.4558 20.1727 10.455C20.5882 10.4344 20.9167 10.2987 21.1575 10.0504L21.2707 10.3913C21.2883 10.4438 21.36 10.5 21.486 10.5589C21.5025 10.5657 21.5265 10.5773 21.5591 10.5938C21.5748 10.6096 21.5859 10.6294 21.591 10.6512C21.5977 10.7104 21.573 10.7562 21.5186 10.7877C21.4627 10.8195 21.3753 10.8394 21.2587 10.8447C20.8064 10.8731 20.3594 10.7344 20.0025 10.455Z" fill="#E5851C"/>
<path d="M21.9151 12.3958C21.9128 12.4446 21.9758 12.4941 22.0565 12.5057C22.1375 12.5166 22.2035 12.4858 22.205 12.4371L22.289 9.20607C22.289 9.15657 22.2256 9.10707 22.1457 9.09657C22.0662 9.08457 21.9987 9.1157 21.998 9.16445L21.9151 12.3958Z" fill="#A6A8AB"/>
<path d="M22.0583 12.4163L22.1423 9.18528C22.1423 9.15266 22.1138 9.12041 22.071 9.09753C22.0953 9.09276 22.1202 9.0925 22.1445 9.09678C22.2244 9.10691 22.2878 9.15678 22.2878 9.20628L22.2038 12.4373C22.2023 12.486 22.1363 12.5168 22.0553 12.5059C22.0303 12.502 22.0061 12.4942 21.9836 12.4827C22.0264 12.4737 22.0575 12.4497 22.0583 12.4163Z" fill="#939292"/>
<path d="M17.3849 16.9799L17.3062 16.2929L18.5062 15.73L18.4762 16.3791L17.3849 16.9799Z" fill="#D3E6ED"/>
<path d="M17.385 16.9799L19.5139 18.9828C19.9789 18.728 20.4253 18.4405 20.8496 18.1225L18.4755 16.3784L17.385 16.9799Z" fill="#858985"/>
</g>
<defs>
<clipPath id="clip0_1450_6194">
<rect width="24" height="24" fill="white" transform="translate(0 0.512939)"/>
</clipPath>
</defs>
</svg>
