<svg width="26" height="28" viewBox="0 0 26 28" fill="none" xmlns="http://www.w3.org/2000/svg">
<path fill-rule="evenodd" clip-rule="evenodd" d="M12.0361 6H11.9648C8.59565 6 5.50654 8.44456 5.20685 11.681C5.18686 11.9125 5.17324 12.1491 5.16444 12.4039L5.15213 12.9997L5.14969 13.534L5.16473 13.4731C5.02569 14.151 4.70525 14.7799 4.23653 15.2938L4.16936 15.3802C3.76804 15.9898 3.53744 16.6955 3.50175 17.4242L3.5009 17.6624C3.48041 18.6208 3.80882 19.5691 4.42663 20.3223C5.26444 21.2069 6.34896 21.7346 7.51296 21.8466C10.49 22.1699 13.502 22.1699 16.4873 21.8457C17.6434 21.7393 18.7311 21.2101 19.5338 20.3582C20.1399 19.6331 20.4707 18.763 20.499 17.862L20.5 17.4587C20.4668 16.698 20.2348 15.9917 19.8286 15.3847L19.7669 15.3055L19.6162 15.1282C19.2776 14.7052 19.0303 14.218 18.8896 13.6969L18.845 13.5098L18.8358 13.3135C18.833 13.2253 18.8317 13.1274 18.8312 13.0052L18.8311 12.3321C18.8288 12.0746 18.8212 11.8915 18.8034 11.6854C18.4934 8.44285 15.4034 6 12.0361 6ZM11.9648 7.39535H12.0361C14.7336 7.39535 17.1944 9.34075 17.4307 11.8133C17.4447 11.9756 17.4509 12.1304 17.4528 12.3605L17.4555 13.2651C17.4585 13.4098 17.4642 13.5301 17.4739 13.6655L17.4868 13.7582L17.5517 14.034C17.744 14.7635 18.0893 15.4441 18.5647 16.0309L18.7026 16.1926L18.6873 16.1672C18.951 16.5613 19.1013 17.0186 19.1223 17.4901L19.1216 17.6536C19.1375 18.3097 18.9199 18.933 18.5084 19.4267C17.9645 20.002 17.1871 20.3802 16.3514 20.4572C13.4527 20.7719 10.5393 20.7719 7.65168 20.4583C6.80682 20.377 6.02881 19.9985 5.45369 19.3931C5.08086 18.9356 4.86568 18.3142 4.87919 17.6774L4.87935 17.4587L4.89682 17.2682C4.9389 16.9495 5.04539 16.6265 5.21045 16.3291L5.29415 16.1905C5.90779 15.5004 6.32892 14.6611 6.51441 13.7567L6.52879 13.6149L6.53532 12.6956L6.55137 12.2292C6.55866 12.0821 6.56798 11.9423 6.57967 11.8068C6.80804 9.34087 9.26651 7.39535 11.9648 7.39535ZM5.29415 16.1905C5.27931 16.2072 5.26436 16.2238 5.24929 16.2404L5.29856 16.1833L5.29415 16.1905ZM14.608 23.6906C14.3114 23.4491 13.8775 23.4967 13.6389 23.7969C13.5355 23.927 13.4158 24.0437 13.2826 24.1443C12.8307 24.4986 12.2669 24.6564 11.7064 24.5896C11.1467 24.523 10.6379 24.2381 10.2927 23.7995C10.0555 23.4981 9.62189 23.4484 9.32417 23.6885C9.02646 23.9286 8.9774 24.3676 9.21459 24.6689C9.787 25.3962 10.6258 25.8659 11.5453 25.9754C12.464 26.0849 13.3891 25.826 14.1167 25.255C14.3327 25.0922 14.5366 24.8935 14.7129 24.6715C14.9515 24.3713 14.9045 23.9321 14.608 23.6906Z" fill="white"/>
<circle cx="20" cy="6.5" r="5.5" fill="url(#paint0_linear_1264_2021)" stroke="#181829"/>
<path d="M19.888 9.096C19.4827 9.096 19.144 9.024 18.872 8.88C18.6 8.73067 18.3787 8.56267 18.208 8.376L18.544 7.944C18.6987 8.104 18.88 8.24533 19.088 8.368C19.296 8.49067 19.5493 8.552 19.848 8.552C20.1573 8.552 20.4107 8.46667 20.608 8.296C20.8053 8.12533 20.904 7.89867 20.904 7.616C20.904 7.41333 20.8507 7.23733 20.744 7.088C20.6427 6.93333 20.472 6.81333 20.232 6.728C19.9973 6.64267 19.6773 6.6 19.272 6.6V6.096C19.6347 6.096 19.92 6.05333 20.128 5.968C20.3413 5.88267 20.4933 5.768 20.584 5.624C20.6747 5.48 20.72 5.32 20.72 5.144C20.72 4.89333 20.64 4.696 20.48 4.552C20.3253 4.408 20.112 4.336 19.84 4.336C19.6267 4.336 19.4293 4.384 19.248 4.48C19.072 4.576 18.9067 4.70133 18.752 4.856L18.4 4.44C18.5973 4.25333 18.816 4.10133 19.056 3.984C19.296 3.86133 19.5653 3.8 19.864 3.8C20.3067 3.8 20.672 3.91467 20.96 4.144C21.248 4.368 21.392 4.68533 21.392 5.096C21.392 5.40533 21.3067 5.65867 21.136 5.856C20.9653 6.05333 20.7413 6.20533 20.464 6.312V6.344C20.7733 6.41333 21.0347 6.56 21.248 6.784C21.4613 7.00267 21.568 7.288 21.568 7.64C21.568 7.93867 21.4933 8.19733 21.344 8.416C21.1947 8.63467 20.992 8.80267 20.736 8.92C20.4853 9.03733 20.2027 9.096 19.888 9.096Z" fill="white"/>
<defs>
<linearGradient id="paint0_linear_1264_2021" x1="15" y1="1.5" x2="24.1667" y2="11.5" gradientUnits="userSpaceOnUse">
<stop stop-color="#F4A58A"/>
<stop offset="1" stop-color="#ED6B4E"/>
</linearGradient>
</defs>
</svg>
