<svg width="16" height="16" viewBox="0 0 16 16" fill="none" xmlns="http://www.w3.org/2000/svg">
<path d="M0.5 0.5H1.805C2.615 0.5 3.2525 1.1975 3.185 2L2.5625 9.47C2.53819 9.7594 2.57427 10.0507 2.66843 10.3254C2.76259 10.6001 2.91279 10.8523 3.1095 11.066C3.30622 11.2796 3.54517 11.45 3.81121 11.5665C4.07725 11.683 4.36459 11.7429 4.655 11.7425H12.6425C13.7225 11.7425 14.6675 10.8575 14.75 9.785L15.155 4.16C15.245 2.915 14.3 1.9025 13.0475 1.9025H3.365M5.75 5H14.75M11.1875 15.5C11.4361 15.5 11.6746 15.4012 11.8504 15.2254C12.0262 15.0496 12.125 14.8111 12.125 14.5625C12.125 14.3139 12.0262 14.0754 11.8504 13.8996C11.6746 13.7238 11.4361 13.625 11.1875 13.625C10.9389 13.625 10.7004 13.7238 10.5246 13.8996C10.3488 14.0754 10.25 14.3139 10.25 14.5625C10.25 14.8111 10.3488 15.0496 10.5246 15.2254C10.7004 15.4012 10.9389 15.5 11.1875 15.5ZM5.1875 15.5C5.43614 15.5 5.6746 15.4012 5.85041 15.2254C6.02623 15.0496 6.125 14.8111 6.125 14.5625C6.125 14.3139 6.02623 14.0754 5.85041 13.8996C5.6746 13.7238 5.43614 13.625 5.1875 13.625C4.93886 13.625 4.7004 13.7238 4.52459 13.8996C4.34877 14.0754 4.25 14.3139 4.25 14.5625C4.25 14.8111 4.34877 15.0496 4.52459 15.2254C4.7004 15.4012 4.93886 15.5 5.1875 15.5Z" stroke="white" stroke-width="0.875" stroke-miterlimit="10" stroke-linecap="round" stroke-linejoin="round"/>
</svg>
