<svg width="40" height="18" viewBox="0 0 40 18" fill="none" xmlns="http://www.w3.org/2000/svg">
<path d="M7.98701 0.268311C7.31901 0.300311 6.49547 0.725665 6.02347 1.323C5.59147 1.839 5.2218 2.67569 5.31513 3.46102C6.0698 3.52635 6.82624 3.06839 7.2969 2.48706C7.7609 1.88839 8.06567 1.08698 7.98701 0.268311ZM14.4011 1.86727V13.8673H16.2995V9.86727H18.9011C21.2877 9.86727 23 8.20727 23 5.86727C23 3.52727 21.3182 1.86727 18.9636 1.86727H14.4011ZM16.2995 3.46623H18.5C20.1374 3.46623 21.099 4.35127 21.099 5.86727C21.099 7.38327 20.1454 8.26571 18.5 8.26571H16.2995V3.46623ZM7.90107 3.86727C6.80107 3.86727 6.01336 4.46623 5.50003 4.46623C4.97869 4.46623 4.19951 3.87248 3.29951 3.87248C2.19951 3.87248 1.12272 4.56373 0.554716 5.57039C-0.611951 7.58239 0.252237 10.5619 1.38024 12.2006C1.93357 13.0113 2.60003 13.8673 3.50003 13.8673C4.32536 13.8366 4.60299 13.3673 5.59899 13.3673C6.60165 13.3673 6.89951 13.8673 7.79951 13.8673C8.69951 13.8673 9.2449 13.0425 9.7969 12.2319C10.4276 11.3119 10.6845 10.4139 10.7005 10.3673C10.6859 10.3526 8.95613 9.68879 8.94013 7.69279C8.92547 6.02346 10.3019 5.22771 10.3646 5.18237C9.58728 4.02771 8.30003 3.86727 8.00003 3.86727H7.90107ZM27.3594 5.06779C25.3687 5.06779 23.8984 6.18417 23.8438 7.71883H25.5313C25.6699 6.9895 26.362 6.5105 27.3073 6.5105C28.454 6.5105 29.1016 7.03475 29.1016 8.00008V8.66675L26.7578 8.79175C24.5805 8.92108 23.4037 9.79258 23.4037 11.3126C23.4037 12.8472 24.6193 13.8673 26.362 13.8673C27.5393 13.8673 28.633 13.2809 29.1276 12.3542H29.1667V13.7761H30.9011V7.88029C30.8997 6.16829 29.5047 5.06779 27.3594 5.06779ZM31.599 5.06779L34.8073 13.8256L34.6354 14.3595C34.3461 15.2621 33.8751 15.6095 33.0391 15.6095C32.8964 15.6095 32.6266 15.5955 32.5026 15.5808V17.0235C32.628 17.0515 33.0672 17.0678 33.2032 17.0678C35.0485 17.0678 35.9171 16.3724 36.6771 14.2657L40 5.06779H38.0755L35.8464 12.1746H35.8073L33.5782 5.06779H31.599ZM29.1016 9.86727L29.0938 10.5626C29.0938 11.6719 28.1339 12.461 26.8646 12.461C25.8659 12.461 25.2292 11.991 25.2292 11.2683C25.2292 10.523 25.8424 10.0902 27.013 10.0209L29.1016 9.86727Z" fill="#8F90A6"/>
</svg>
