<svg width="40" height="40" viewBox="0 0 40 40" fill="none" xmlns="http://www.w3.org/2000/svg">
<path d="M5.33317 6.66675C3.85984 6.66675 2.6665 7.86008 2.6665 9.33341V14.7319H6.69515C7.79515 14.7319 8.21598 15.7631 8.21598 15.7631L9.15088 20.5131C8.04421 16.9478 3.7785 15.219 2.6665 14.823V30.6667C2.6665 32.1401 3.85984 33.3334 5.33317 33.3334H34.6665C36.1398 33.3334 37.3332 32.1401 37.3332 30.6667V9.33341C37.3332 7.86008 36.1398 6.66675 34.6665 6.66675H5.33317ZM24.492 14.4949C25.78 14.4949 27.0962 15.0105 27.0962 15.0105L26.6457 17.323C26.6457 17.323 25.6186 16.6485 24.7186 16.6485C23.3373 16.6485 22.854 17.0991 22.854 17.7058C22.854 18.8938 26.7108 19.0861 26.7108 21.7501C26.7094 23.9634 23.9449 25.5053 21.9556 25.5053C19.9636 25.5053 18.9347 24.8985 18.9347 24.8985L19.4165 22.6798C19.4165 22.6798 20.4778 23.2891 22.0858 23.2891C23.6911 23.2891 23.9139 22.6149 23.9139 22.3256C23.9139 20.6256 20.0623 21.0789 20.0623 17.7709C20.0623 15.9416 21.5707 14.4949 24.492 14.4949ZM12.0285 14.7058H15.0024L10.7733 25.1772H7.71077L5.48161 16.698C5.48161 16.698 7.83048 17.8876 9.27848 21.1329C9.34115 21.5276 9.48682 22.1615 9.48682 22.1615L12.0285 14.7058ZM16.0988 14.7058H18.9113L17.2316 25.1772H14.453L16.0988 14.7058ZM31.1978 14.7058H34.1196L36.2707 25.1772H33.742L33.4425 23.685H29.966L29.3957 25.1772H26.6353L31.1978 14.7058ZM32.2472 17.7266L30.7368 21.6824H33.0389L32.2472 17.7266Z" fill="url(#paint0_linear_1460_6826)"/>
<defs>
<linearGradient id="paint0_linear_1460_6826" x1="2.6665" y1="6.66675" x2="37.9605" y2="32.4755" gradientUnits="userSpaceOnUse">
<stop stop-color="#F5F5F5"/>
<stop offset="1" stop-color="#E0E0E0"/>
</linearGradient>
</defs>
</svg>
