<svg width="40" height="40" viewBox="0 0 40 40" fill="none" xmlns="http://www.w3.org/2000/svg">
<g id="vuesax/bold/call">
<g id="call">
<path id="Vector" d="M32.9045 19.3054L32.9044 19.3054L32.9059 19.3094C33.1175 19.8914 33.2025 20.5342 33.1375 21.2462L33.1368 21.2541L33.1363 21.2621C33.077 22.11 32.7849 22.6938 32.3355 23.0908C32.1784 23.2295 31.9964 23.3299 31.8115 23.3822L31.8115 23.3822L31.8007 23.3854C31.6099 23.4425 31.4189 23.4528 31.2145 23.4024L31.2145 23.4024L31.2061 23.4004L26.8221 22.3727L26.8221 22.3727L26.817 22.3716C26.5249 22.3052 26.3022 22.2258 26.1258 22.1386L26.1259 22.1385L26.1147 22.1332C25.9497 22.0551 25.8421 21.9707 25.7839 21.9048C25.7053 21.8158 25.6402 21.6914 25.6087 21.5151L25.6066 21.5032L25.6041 21.4913C25.5602 21.2842 25.5418 21.0116 25.5625 20.679L25.5629 20.6718L25.5632 20.6646L25.6154 19.4405C25.637 19.0552 25.5034 18.7202 25.266 18.4514C25.1596 18.3309 25.0509 18.24 24.9328 18.1588L24.8977 18.1347L24.86 18.1146C24.8065 18.0862 24.7572 18.0626 24.7248 18.0471C24.7215 18.0455 24.7185 18.0441 24.7156 18.0427C24.698 18.0342 24.6872 18.029 24.6785 18.0246C24.671 18.0208 24.6682 18.0192 24.6682 18.0192L24.6106 17.9858L24.5479 17.963C24.0816 17.7939 23.4436 17.6536 22.6664 17.54L22.6664 17.54L22.6581 17.5389C21.8812 17.4342 21.0672 17.343 20.2164 17.2821L20.2164 17.2821L20.2093 17.2816C20.1209 17.2762 20.0319 17.2728 19.9532 17.2699L19.9491 17.2697C19.866 17.2666 19.7939 17.2639 19.7253 17.2596L19.7253 17.2595L19.7158 17.2591C19.5012 17.2485 19.3415 17.0699 19.3547 16.8569L19.5365 13.9243C19.5489 13.7244 19.7135 13.5647 19.9345 13.5693C20.0261 13.5748 20.1144 13.5782 20.194 13.5813L20.1976 13.5814C20.2835 13.5848 20.3597 13.5877 20.4362 13.5925C22.0388 13.6997 23.5932 13.9204 25.1 14.2541C26.5914 14.5936 27.9385 15.0453 29.1226 15.6106C30.2944 16.1862 31.2211 16.8696 31.9166 17.657C32.3634 18.1629 32.6946 18.7175 32.9045 19.3054Z" fill="white" stroke="white" stroke-width="1.49742"/>
<path id="Vector_2" d="M7.02667 20.7888L7.02451 20.7807L7.02217 20.7726C6.91699 20.41 6.86059 20.0337 6.8658 19.6266C6.87492 18.9505 7.00197 18.3648 7.24286 17.8386L7.24356 17.838L7.3087 17.7068C7.58375 17.153 7.96633 16.6452 8.47486 16.1961C9.2447 15.5161 10.2473 14.953 11.502 14.5362C12.7741 14.1137 14.1754 13.8248 15.7004 13.6806C15.96 13.6587 16.2139 13.6374 16.4642 13.6195L16.2334 17.3422C16.0716 17.3679 15.9212 17.3979 15.7836 17.4317L15.7465 17.4408L15.7105 17.4537C15.7021 17.4566 15.6871 17.4614 15.6491 17.4729C15.6461 17.4738 15.6431 17.4748 15.6399 17.4757C15.6077 17.4854 15.5634 17.4988 15.5167 17.5142L15.5003 17.5196L15.4842 17.5258C15.2854 17.6017 15.1347 17.711 15.0154 17.8163C14.7163 18.0804 14.5683 18.4155 14.5453 18.7761L14.4633 19.9704L14.4633 19.9704L14.4629 19.9754C14.441 20.3289 14.3888 20.5848 14.3215 20.7601L14.3127 20.7832L14.3053 20.8067C14.2514 20.9808 14.1787 21.0876 14.0833 21.1718C14.0057 21.2404 13.8955 21.3098 13.7226 21.37C13.5362 21.435 13.3026 21.4871 13.0027 21.5255L8.4771 22.0075L8.4771 22.0074L8.46829 22.0085C8.23803 22.0357 8.07515 22.0064 7.94209 21.9472C7.74402 21.846 7.59374 21.7356 7.46419 21.5889C7.31538 21.4204 7.18736 21.215 7.09458 20.9846C7.05989 20.8937 7.04052 20.8409 7.02667 20.7888ZM7.3235 17.6694C7.32394 17.6683 7.32336 17.6698 7.32261 17.6716L7.3235 17.6694Z" fill="white" stroke="white" stroke-width="1.49742"/>
</g>
</g>
</svg>
