<svg width="28" height="28" viewBox="0 0 28 28" fill="none" xmlns="http://www.w3.org/2000/svg">
<g id="&#240;&#159;&#166;&#134; icon &#34;flip camera ios&#34;">
<path id="Vector" d="M22.9847 6.13871L19.4246 6.13871L17.3694 3.89258L10.631 3.89258L8.57577 6.13871H5.01566C3.78029 6.13871 2.76953 7.14946 2.76953 8.38483L2.76953 21.8616C2.76953 23.097 3.78029 24.1077 5.01566 24.1077H22.9847C24.22 24.1077 25.2308 23.097 25.2308 21.8616V8.38483C25.2308 7.14946 24.22 6.13871 22.9847 6.13871ZM22.9847 21.8616H5.01566L5.01566 8.38483H8.57577H9.56407L10.2267 7.65484L11.6193 6.13871L16.3811 6.13871L17.7737 7.65484L18.4363 8.38483H19.4246H22.9847V21.8616Z" fill="white"/>
<path id="Vector_2" d="M14.0001 19.6153C11.5181 19.6153 9.50786 17.6051 9.50786 15.1231H11.754L8.94633 12.3154L6.13867 15.1231H8.3848C8.3848 18.2227 10.9005 20.7384 14.0001 20.7384C14.966 20.7384 15.8532 20.4689 16.6505 20.0421L15.8195 19.211C15.2692 19.4693 14.6515 19.6153 14.0001 19.6153Z" fill="white"/>
<path id="Vector_3" d="M14 9.50781C13.0342 9.50781 12.147 9.77735 11.3496 10.2041L12.1807 11.0239C12.731 10.7769 13.3487 10.6309 14 10.6309C16.482 10.6309 18.4923 12.6412 18.4923 15.1231H16.2462L19.0538 17.9308L21.8615 15.1231H19.6154C19.6154 12.0235 17.0997 9.50781 14 9.50781Z" fill="white"/>
</g>
</svg>
