<svg width="28" height="28" viewBox="0 0 28 28" fill="none" xmlns="http://www.w3.org/2000/svg">
<g id="vuesax/bold/microphone-slash">
<g id="microphone-slash">
<path id="Vector" d="M10.8735 16.0914L10.3532 16.6117C9.59836 15.7007 9.146 14.522 9.146 13.2754V7.87215C9.146 5.60983 10.6835 3.73189 12.7701 3.19376C12.9788 3.13885 13.1764 3.31456 13.1764 3.52323V5.21448C13.1764 5.66474 13.5498 6.03814 14.0001 6.03814C14.4504 6.03814 14.8238 5.66474 14.8238 5.21448V3.52323C14.8238 3.31456 15.0214 3.13885 15.2301 3.19376C17.3167 3.73189 18.8542 5.60983 18.8542 7.87215V9.14608M10.8735 16.0914C11.0194 16.2731 11.179 16.4429 11.3509 16.5986L10.8592 17.1411M10.8735 16.0914L18.1221 8.84282M10.8735 16.0914C10.2505 15.3156 9.87814 14.3222 9.87814 13.2754V7.87215C9.87814 6.14202 10.9368 4.67647 12.4443 4.06982M10.8592 17.1411L10.5048 16.7867C10.6172 16.9106 10.7355 17.029 10.8592 17.1411ZM10.8592 17.1411L18.8542 9.14608M18.8542 9.14608L18.3365 8.62838L18.1221 8.84282M18.8542 9.14608H18.1221V8.84282M18.1221 8.84282V7.87215C18.1221 6.14202 17.0634 4.67647 15.5559 4.06982M12.4443 4.06982V5.21448C12.4443 6.06909 13.1455 6.77028 14.0001 6.77028C14.8547 6.77028 15.5559 6.06909 15.5559 5.21448V4.06982M12.4443 4.06982C12.6088 4.00364 12.7786 3.94767 12.9529 3.90271L12.9529 3.90272L12.9564 3.9018C12.9553 3.90211 12.9541 3.90241 12.9529 3.9027C12.802 3.94111 12.665 3.89087 12.5818 3.82126C12.5029 3.75529 12.4443 3.65082 12.4443 3.52323V4.06982ZM15.5559 4.06982V3.52323C15.5559 3.65081 15.4973 3.75529 15.4184 3.82126C15.3352 3.89087 15.1982 3.9411 15.0473 3.9027C15.0461 3.90241 15.0449 3.90211 15.0438 3.90181L15.0473 3.90271C15.2216 3.94767 15.3914 4.00364 15.5559 4.06982Z" fill="white" stroke="white" stroke-width="1.46429"/>
<path id="Vector_2" d="M14.7045 21.1446L14.0365 21.2034V21.874V24.2132C14.0365 24.2224 14.0348 24.2279 14.0335 24.231C14.032 24.2346 14.0299 24.2378 14.0272 24.2404C14.0245 24.2431 14.0213 24.2453 14.0178 24.2468C14.0146 24.2481 14.0092 24.2498 13.9999 24.2498C13.9906 24.2498 13.9852 24.2481 13.982 24.2468C13.9785 24.2453 13.9753 24.2431 13.9726 24.2404C13.9699 24.2378 13.9678 24.2346 13.9663 24.231C13.965 24.2279 13.9633 24.2224 13.9633 24.2132V21.874V21.2059L13.298 21.1449C12.5451 21.0758 11.8222 20.9026 11.145 20.6356L11.1926 20.588C12.0602 20.9229 13.0081 21.1125 13.9999 21.1125C18.2912 21.1125 21.7826 17.6226 21.7826 13.3408V11.5947C21.7826 11.5907 21.7832 11.5887 21.7839 11.5872C21.7847 11.5853 21.7863 11.5825 21.7893 11.5796C21.7923 11.5766 21.796 11.5741 21.8002 11.5723C21.804 11.5708 21.8099 11.5691 21.8192 11.5691C21.8232 11.5691 21.8256 11.5697 21.8277 11.5706C21.8303 11.5717 21.8336 11.5738 21.8369 11.577C21.8401 11.5802 21.8421 11.5835 21.8432 11.5862C21.8441 11.5883 21.8448 11.5907 21.8448 11.5947V13.3408C21.8448 17.4275 18.7009 20.7932 14.7045 21.1446Z" fill="white" stroke="white" stroke-width="1.46429"/>
<path id="Vector_3" d="M14.1789 17.6022L18.1181 13.663C18.0268 15.7904 16.3156 17.5061 14.1789 17.6022Z" fill="white" stroke="white" stroke-width="1.46429"/>
<path id="Vector_4" d="M24.2117 3.78824L24.2116 3.78831L24.2202 3.79666C24.2466 3.82216 24.2526 3.84588 24.2526 3.86357C24.2526 3.88126 24.2466 3.90498 24.2202 3.93049L24.2202 3.93042L24.2117 3.9389L3.93866 24.2119C3.90452 24.2461 3.87951 24.2501 3.86332 24.2501C3.84909 24.2501 3.81523 24.2462 3.76517 24.2089C3.7339 24.1647 3.73785 24.1004 3.77701 24.0613L8.19183 19.6465L8.6867 19.1516L8.21463 18.6349C6.93735 17.2369 6.15493 15.3793 6.15493 13.3412V11.595C6.15493 11.591 6.1556 11.5886 6.1565 11.5865C6.15762 11.5838 6.15966 11.5805 6.16288 11.5773C6.1661 11.5741 6.16941 11.5721 6.17204 11.5709C6.17416 11.57 6.17659 11.5694 6.18056 11.5694C6.18985 11.5694 6.19571 11.5711 6.1995 11.5727C6.20376 11.5744 6.20746 11.577 6.21042 11.5799C6.21341 11.5828 6.21505 11.5856 6.21588 11.5876C6.21651 11.589 6.21716 11.5911 6.21716 11.595V13.3412C6.21716 15.3405 6.96949 17.1625 8.22027 18.5347L8.73684 19.1014L9.27906 18.5592L24.05 3.78824C24.0936 3.74469 24.1681 3.74469 24.2117 3.78824Z" fill="white" stroke="white" stroke-width="1.46429"/>
</g>
</g>
</svg>
