<svg width="25" height="25" viewBox="0 0 25 25" fill="none" xmlns="http://www.w3.org/2000/svg">
<g id="vuesax/linear/pause-circle">
<g id="pause-circle">
<path id="Vector" d="M12.4691 22.5597C18.1234 22.5597 22.7071 17.9759 22.7071 12.3216C22.7071 6.66725 18.1234 2.0835 12.4691 2.0835C6.81471 2.0835 2.23096 6.66725 2.23096 12.3216C2.23096 17.9759 6.81471 22.5597 12.4691 22.5597Z" stroke="white" stroke-width="1.53571" stroke-linecap="round" stroke-linejoin="round"/>
<path id="Vector_2" d="M11.1895 14.9118V9.73136C11.1895 9.23993 10.9848 9.04541 10.4626 9.04541H9.13169C8.60955 9.04541 8.40479 9.23993 8.40479 9.73136V14.9118C8.40479 15.4033 8.60955 15.5978 9.13169 15.5978H10.4524C10.9848 15.5978 11.1895 15.4033 11.1895 14.9118Z" stroke="white" stroke-width="1.53571" stroke-linecap="round" stroke-linejoin="round"/>
<path id="Vector_3" d="M16.5953 14.9118V9.73136C16.5953 9.23993 16.3906 9.04541 15.8684 9.04541H14.5477C14.0256 9.04541 13.8208 9.23993 13.8208 9.73136V14.9118C13.8208 15.4033 14.0256 15.5978 14.5477 15.5978H15.8684C16.3906 15.5978 16.5953 15.4033 16.5953 14.9118Z" stroke="white" stroke-width="1.53571" stroke-linecap="round" stroke-linejoin="round"/>
</g>
</g>
</svg>
