<svg width="25" height="25" viewBox="0 0 25 25" fill="none" xmlns="http://www.w3.org/2000/svg">
<g id="ri-user-add-line" clip-path="url(#clip0_1352_3604)">
<g id="Group">
<path id="Vector" d="M14.5003 14.5721V16.6615C13.5955 16.3416 12.6272 16.2435 11.6766 16.3754C10.726 16.5073 9.82098 16.8653 9.03745 17.4195C8.25393 17.9736 7.6148 18.7077 7.17376 19.56C6.73271 20.4124 6.50262 21.3581 6.5028 22.3178L4.50342 22.3168C4.50311 21.096 4.78225 19.8914 5.31947 18.7952C5.85668 17.6991 6.6377 16.7404 7.60268 15.9927C8.56766 15.2451 9.691 14.7282 10.8866 14.4818C12.0822 14.2354 13.3184 14.266 14.5003 14.5711V14.5721ZM12.501 13.3205C9.18698 13.3205 6.5028 10.6364 6.5028 7.32237C6.5028 4.00839 9.18698 1.32422 12.501 1.32422C15.8149 1.32422 18.4991 4.00839 18.4991 7.32237C18.4991 10.6364 15.8149 13.3205 12.501 13.3205ZM12.501 11.3211C14.7103 11.3211 16.4997 9.53169 16.4997 7.32237C16.4997 5.11305 14.7103 3.3236 12.501 3.3236C10.2916 3.3236 8.50219 5.11305 8.50219 7.32237C8.50219 9.53169 10.2916 11.3211 12.501 11.3211ZM18.4991 17.3193V14.3202H20.4985V17.3193H23.4976V19.3187H20.4985V22.3178H18.4991V19.3187H15.5V17.3193H18.4991Z" fill="white"/>
</g>
</g>
<defs>
<clipPath id="clip0_1352_3604">
<rect width="23.9926" height="23.9926" fill="white" transform="translate(0.503906 0.325195)"/>
</clipPath>
</defs>
</svg>
