<svg width="18" height="17" viewBox="0 0 18 17" fill="none" xmlns="http://www.w3.org/2000/svg">
<g id="Send">
<path id="Send_2" fill-rule="evenodd" clip-rule="evenodd" d="M17.0871 2.07612C17.3468 0.904735 16.2574 -0.152263 15.078 0.189068L2.0309 3.98552L1.90499 4.02737C0.680336 4.48826 0.492435 6.19389 1.63949 6.90003L7.03577 10.2216L10.2822 15.6L10.3552 15.711C11.1162 16.7773 12.8014 16.519 13.1857 15.2265L17.0566 2.19359L17.0871 2.07612ZM15.4871 1.37753C15.7278 1.35169 15.9334 1.58577 15.8585 1.83711L11.9874 14.8705L11.962 14.9344C11.8411 15.1723 11.4987 15.1965 11.3524 14.9541L8.2791 9.86324L12.6562 5.45796L12.7165 5.38766C12.8972 5.14238 12.8759 4.79523 12.6532 4.57408L12.5829 4.5138C12.3377 4.33307 11.9905 4.3544 11.7694 4.57703L7.39827 8.97657L2.29474 5.83553L2.23964 5.79416C2.04145 5.61361 2.10816 5.26468 2.37974 5.18586L15.4264 1.38954L15.4871 1.37753Z" fill="white"/>
</g>
</svg>
