<svg width="24" height="24" viewBox="0 0 24 24" fill="none" xmlns="http://www.w3.org/2000/svg">
<g id="vuesax/linear/video">
<g id="video">
<path id="Vector" d="M12.5242 20.3349H6.26806C3.13998 20.3349 2.10059 18.2562 2.10059 16.1675V7.83251C2.10059 4.70443 3.13998 3.66504 6.26806 3.66504H12.5242C15.6523 3.66504 16.6917 4.70443 16.6917 7.83251V16.1675C16.6917 19.2955 15.6424 20.3349 12.5242 20.3349Z" stroke="white" stroke-width="2.22727" stroke-linecap="round" stroke-linejoin="round"/>
<path id="Vector_2" d="M19.4438 17.0485L16.6919 15.1182V8.87198L19.4438 6.94167C20.7901 6.00127 21.8988 6.57541 21.8988 8.22854V15.7716C21.8988 17.4247 20.7901 17.9988 19.4438 17.0485Z" fill="white" stroke="white" stroke-width="2.22727" stroke-linecap="round" stroke-linejoin="round"/>
<path id="Vector_3" d="M11.5049 11.0102C12.3249 11.0102 12.9897 10.3454 12.9897 9.52538C12.9897 8.70532 12.3249 8.04053 11.5049 8.04053C10.6848 8.04053 10.02 8.70532 10.02 9.52538C10.02 10.3454 10.6848 11.0102 11.5049 11.0102Z" stroke="white" stroke-width="2.22727" stroke-linecap="round" stroke-linejoin="round"/>
</g>
</g>
</svg>
