<svg width="24" height="24" viewBox="0 0 24 24" fill="none" xmlns="http://www.w3.org/2000/svg">
<g id="vuesax/linear/volume-high">
<g id="volume-high">
<path id="Vector" d="M2.10107 10.0204V13.98C2.10107 15.9598 3.09097 16.9497 5.07077 16.9497H6.48633C6.85259 16.9497 7.21885 17.0586 7.53562 17.2466L10.4261 19.0582C12.9207 20.6222 14.9698 19.4838 14.9698 16.5438V7.45653C14.9698 4.50664 12.9207 3.37815 10.4261 4.94219L7.53562 6.75371C7.21885 6.94179 6.85259 7.05068 6.48633 7.05068H5.07077C3.09097 7.05068 2.10107 8.04058 2.10107 10.0204Z" stroke="white" stroke-width="2.22727"/>
<g id="Vector_2">
<path d="M17.9395 8.04053C19.7015 10.3866 19.7015 13.6137 17.9395 15.9597Z" fill="white"/>
<path d="M17.9395 8.04053C19.7015 10.3866 19.7015 13.6137 17.9395 15.9597" stroke="white" stroke-width="2.22727" stroke-linecap="round" stroke-linejoin="round"/>
</g>
<path id="Vector_3" d="M19.751 5.56543C22.6118 9.37654 22.6118 14.623 19.751 18.4341" stroke="white" stroke-width="2.22727" stroke-linecap="round" stroke-linejoin="round"/>
</g>
</g>
</svg>
