<svg width="16" height="17" viewBox="0 0 16 17" fill="none" xmlns="http://www.w3.org/2000/svg">
<g id="Iconsax/Outline/calendar">
<path id="Vector" d="M5.33333 4.33325C5.06 4.33325 4.83333 4.10659 4.83333 3.83325V1.83325C4.83333 1.55992 5.06 1.33325 5.33333 1.33325C5.60667 1.33325 5.83333 1.55992 5.83333 1.83325V3.83325C5.83333 4.10659 5.60667 4.33325 5.33333 4.33325ZM10.6667 4.33325C10.3933 4.33325 10.1667 4.10659 10.1667 3.83325V1.83325C10.1667 1.55992 10.3933 1.33325 10.6667 1.33325C10.94 1.33325 11.1667 1.55992 11.1667 1.83325V3.83325C11.1667 4.10659 10.94 4.33325 10.6667 4.33325Z" fill="white"/>
<path id="Vector_2" d="M10 15.6666H6C2.25333 15.6666 1.5 13.8999 1.5 11.0466V6.93325C1.5 3.77325 2.56667 2.48659 5.30667 2.33325H10.6933C13.4333 2.48659 14.5 3.77325 14.5 6.93325V11.0466C14.5 13.8999 13.7467 15.6666 10 15.6666ZM5.33333 3.33325C3.46667 3.43992 2.5 4.02658 2.5 6.93325V11.0466C2.5 13.5999 2.98667 14.6666 6 14.6666H10C13.0133 14.6666 13.5 13.5999 13.5 11.0466V6.93325C13.5 4.03325 12.54 3.43992 10.6533 3.33325H5.33333Z" fill="white"/>
<path id="Vector_3" d="M13.8333 12.7347H2.16667C1.89333 12.7347 1.66667 12.508 1.66667 12.2347C1.66667 11.9613 1.89333 11.7347 2.16667 11.7347H13.8333C14.1067 11.7347 14.3333 11.9613 14.3333 12.2347C14.3333 12.508 14.1067 12.7347 13.8333 12.7347ZM8 6C7.18 6 6.48667 6.44667 6.48667 7.31333C6.48667 7.72667 6.68 8.04 6.97333 8.24C6.56667 8.48 6.33333 8.86667 6.33333 9.32C6.33333 10.1467 6.96667 10.66 8 10.66C9.02667 10.66 9.66667 10.1467 9.66667 9.32C9.66667 8.86667 9.43333 8.47333 9.02 8.24C9.32 8.03333 9.50667 7.72667 9.50667 7.31333C9.50667 6.44667 8.82 6 8 6ZM8 7.89333C7.65333 7.89333 7.4 7.68667 7.4 7.36C7.4 7.02667 7.65333 6.83333 8 6.83333C8.34667 6.83333 8.6 7.02667 8.6 7.36C8.6 7.68667 8.34667 7.89333 8 7.89333ZM8 9.83333C7.56 9.83333 7.24 9.61333 7.24 9.21333C7.24 8.81333 7.56 8.6 8 8.6C8.44 8.6 8.76 8.82 8.76 9.21333C8.76 9.61333 8.44 9.83333 8 9.83333Z" fill="white"/>
</g>
</svg>
