<svg width="18" height="18" viewBox="0 0 18 18" fill="none" xmlns="http://www.w3.org/2000/svg">
<g id="mdi:emoji-happy-outline">
<path id="Vector" d="M15 9C15 7.4087 14.3679 5.88258 13.2426 4.75736C12.1174 3.63214 10.5913 3 9 3C7.4087 3 5.88258 3.63214 4.75736 4.75736C3.63214 5.88258 3 7.4087 3 9C3 10.5913 3.63214 12.1174 4.75736 13.2426C5.88258 14.3679 7.4087 15 9 15C10.5913 15 12.1174 14.3679 13.2426 13.2426C14.3679 12.1174 15 10.5913 15 9ZM16.5 9C16.5 10.9891 15.7098 12.8968 14.3033 14.3033C12.8968 15.7098 10.9891 16.5 9 16.5C8.01509 16.5 7.03982 16.306 6.12987 15.9291C5.21993 15.5522 4.39314 14.9997 3.6967 14.3033C2.29018 12.8968 1.5 10.9891 1.5 9C1.5 7.01088 2.29018 5.10322 3.6967 3.6967C5.10322 2.29018 7.01088 1.5 9 1.5C9.98491 1.5 10.9602 1.69399 11.8701 2.0709C12.7801 2.44781 13.6069 3.00026 14.3033 3.6967C14.9997 4.39314 15.5522 5.21993 15.9291 6.12987C16.306 7.03982 16.5 8.01509 16.5 9ZM7.5 7.125C7.5 7.725 6.975 8.25 6.375 8.25C5.775 8.25 5.25 7.725 5.25 7.125C5.25 6.525 5.775 6 6.375 6C6.975 6 7.5 6.525 7.5 7.125ZM12.75 7.125C12.75 7.725 12.225 8.25 11.625 8.25C11.025 8.25 10.5 7.725 10.5 7.125C10.5 6.525 11.025 6 11.625 6C12.225 6 12.75 6.525 12.75 7.125ZM9 12.9225C7.6875 12.9225 6.5325 12.375 5.8575 11.565L6.9225 10.5C7.26 11.04 8.0625 11.4225 9 11.4225C9.9375 11.4225 10.74 11.04 11.0775 10.5L12.1425 11.565C11.4675 12.375 10.3125 12.9225 9 12.9225Z" fill="url(#paint0_linear_1297_2199)"/>
</g>
<defs>
<linearGradient id="paint0_linear_1297_2199" x1="1.5" y1="1.5" x2="19.3042" y2="11.5148" gradientUnits="userSpaceOnUse">
<stop stop-color="#F5F5F5"/>
<stop offset="1" stop-color="#E0E0E0"/>
</linearGradient>
</defs>
</svg>
