<svg width="18" height="18" viewBox="0 0 18 18" fill="none" xmlns="http://www.w3.org/2000/svg">
<g id="Iconsax/Linear/gallery" clip-path="url(#clip0_1297_2200)">
<path id="Vector" d="M6.75 16.5H11.25C15 16.5 16.5 15 16.5 11.25V6.75C16.5 3 15 1.5 11.25 1.5H6.75C3 1.5 1.5 3 1.5 6.75V11.25C1.5 15 3 16.5 6.75 16.5Z" stroke="url(#paint0_linear_1297_2200)" stroke-width="1.2" stroke-linecap="round" stroke-linejoin="round"/>
<path id="Vector_2" d="M2.0025 14.2125L5.7 11.73C6.2925 11.3325 7.1475 11.3775 7.68 11.835L7.9275 12.0525C8.5125 12.555 9.4575 12.555 10.0425 12.0525L13.1625 9.375C13.7475 8.8725 14.6925 8.8725 15.2775 9.375L16.5 10.425M6.75 7.5C7.14783 7.5 7.52936 7.34196 7.81066 7.06066C8.09197 6.77936 8.25 6.39782 8.25 6C8.25 5.60218 8.09197 5.22064 7.81066 4.93934C7.52936 4.65804 7.14783 4.5 6.75 4.5C6.35218 4.5 5.97065 4.65804 5.68934 4.93934C5.40804 5.22064 5.25 5.60218 5.25 6C5.25 6.39782 5.40804 6.77936 5.68934 7.06066C5.97065 7.34196 6.35218 7.5 6.75 7.5Z" stroke="url(#paint1_linear_1297_2200)" stroke-width="1.2" stroke-linecap="round" stroke-linejoin="round"/>
</g>
<defs>
<linearGradient id="paint0_linear_1297_2200" x1="1.5" y1="1.5" x2="19.3042" y2="11.5148" gradientUnits="userSpaceOnUse">
<stop stop-color="#F5F5F5"/>
<stop offset="1" stop-color="#E0E0E0"/>
</linearGradient>
<linearGradient id="paint1_linear_1297_2200" x1="2.0025" y1="4.5" x2="15.2886" y2="15.6553" gradientUnits="userSpaceOnUse">
<stop stop-color="#F5F5F5"/>
<stop offset="1" stop-color="#E0E0E0"/>
</linearGradient>
<clipPath id="clip0_1297_2200">
<rect width="18" height="18" fill="white"/>
</clipPath>
</defs>
</svg>
