<svg width="18" height="18" viewBox="0 0 18 18" fill="none" xmlns="http://www.w3.org/2000/svg">
<g id="Iconsax/Bold/microphone2">
<path id="Vector" d="M14.34 6.84002C14.0475 6.84002 13.815 7.07252 13.815 7.36502V8.55002C13.815 11.205 11.655 13.365 9.00001 13.365C6.34501 13.365 4.18501 11.205 4.18501 8.55002V7.35752C4.18501 7.06502 3.95251 6.83252 3.66001 6.83252C3.36751 6.83252 3.13501 7.06502 3.13501 7.35752V8.54252C3.13501 11.595 5.48251 14.1075 8.47501 14.3775V15.975C8.47501 16.2675 8.70751 16.5 9.00001 16.5C9.29251 16.5 9.52501 16.2675 9.52501 15.975V14.3775C12.51 14.115 14.865 11.595 14.865 8.54252V7.35752C14.8617 7.22001 14.8051 7.08917 14.7071 6.99261C14.6092 6.89606 14.4775 6.84134 14.34 6.84002Z" fill="white"/>
<path id="Vector_2" d="M8.99847 1.5C7.16847 1.5 5.68347 2.985 5.68347 4.815V8.655C5.68347 10.485 7.16847 11.97 8.99847 11.97C10.8285 11.97 12.3135 10.485 12.3135 8.655V4.815C12.3135 2.985 10.8285 1.5 8.99847 1.5ZM9.98097 6.7125C9.92847 6.9075 9.75597 7.035 9.56097 7.035C9.52347 7.035 9.48597 7.0275 9.44847 7.02C9.15597 6.9375 8.84847 6.9375 8.55597 7.02C8.31597 7.0875 8.08347 6.945 8.02347 6.7125C7.95597 6.48 8.09847 6.24 8.33097 6.18C8.77347 6.06 9.23847 6.06 9.68097 6.18C9.90597 6.24 10.041 6.48 9.98097 6.7125ZM10.3785 5.2575C10.3475 5.34176 10.2913 5.41438 10.2174 5.46541C10.1436 5.51643 10.0557 5.54336 9.96597 5.5425C9.91347 5.5425 9.86847 5.535 9.81597 5.52C9.29097 5.325 8.70597 5.325 8.18097 5.52C8.07152 5.55881 7.9512 5.55303 7.84597 5.50392C7.74074 5.45482 7.65903 5.36631 7.61847 5.2575C7.53597 5.0325 7.65597 4.7775 7.88097 4.7025C8.60285 4.44 9.39409 4.44 10.116 4.7025C10.341 4.785 10.461 5.0325 10.3785 5.2575Z" fill="white"/>
</g>
</svg>
