<svg width="26" height="28" viewBox="0 0 26 28" fill="none" xmlns="http://www.w3.org/2000/svg">
<path fill-rule="evenodd" clip-rule="evenodd" d="M12.0361 5.5H11.9648C8.59565 5.5 5.50654 7.94456 5.20685 11.181C5.18686 11.4125 5.17324 11.6491 5.16444 11.9039L5.15213 12.4997L5.14969 13.034L5.16473 12.9731C5.02569 13.651 4.70525 14.2799 4.23653 14.7938L4.16936 14.8802C3.76804 15.4898 3.53744 16.1955 3.50175 16.9242L3.5009 17.1624C3.48041 18.1208 3.80882 19.0691 4.42663 19.8223C5.26444 20.7069 6.34896 21.2346 7.51296 21.3466C10.49 21.6699 13.502 21.6699 16.4873 21.3457C17.6434 21.2393 18.7311 20.7101 19.5338 19.8582C20.1399 19.1331 20.4707 18.263 20.499 17.362L20.5 16.9587C20.4668 16.198 20.2348 15.4917 19.8286 14.8847L19.7669 14.8055L19.6162 14.6282C19.2776 14.2052 19.0303 13.718 18.8896 13.1969L18.845 13.0098L18.8358 12.8135C18.833 12.7253 18.8317 12.6274 18.8312 12.5052L18.8311 11.8321C18.8288 11.5746 18.8212 11.3915 18.8034 11.1854C18.4934 7.94285 15.4034 5.5 12.0361 5.5ZM11.9648 6.89535H12.0361C14.7336 6.89535 17.1944 8.84075 17.4307 11.3133C17.4447 11.4756 17.4509 11.6304 17.4528 11.8605L17.4555 12.7651C17.4585 12.9098 17.4642 13.0301 17.4739 13.1655L17.4868 13.2582L17.5517 13.534C17.744 14.2635 18.0893 14.9441 18.5647 15.5309L18.7026 15.6926L18.6873 15.6672C18.951 16.0613 19.1013 16.5186 19.1223 16.9901L19.1216 17.1536C19.1375 17.8097 18.9199 18.433 18.5084 18.9267C17.9645 19.502 17.1871 19.8802 16.3514 19.9572C13.4527 20.2719 10.5393 20.2719 7.65168 19.9583C6.80682 19.877 6.02881 19.4985 5.45369 18.8931C5.08086 18.4356 4.86568 17.8142 4.87919 17.1774L4.87935 16.9587L4.89682 16.7682C4.9389 16.4495 5.04539 16.1265 5.21045 15.8291L5.29415 15.6905C5.90779 15.0004 6.32892 14.1611 6.51441 13.2567L6.52879 13.1149L6.53532 12.1956L6.55137 11.7292C6.55866 11.5821 6.56798 11.4423 6.57967 11.3068C6.80804 8.84087 9.26651 6.89535 11.9648 6.89535ZM5.29415 15.6905C5.27931 15.7072 5.26436 15.7238 5.24929 15.7404L5.29856 15.6833L5.29415 15.6905ZM14.608 23.1906C14.3114 22.9491 13.8775 22.9967 13.6389 23.2969C13.5355 23.427 13.4158 23.5437 13.2826 23.6443C12.8307 23.9986 12.2669 24.1564 11.7064 24.0896C11.1467 24.023 10.6379 23.7381 10.2927 23.2995C10.0555 22.9981 9.62189 22.9484 9.32417 23.1885C9.02646 23.4286 8.9774 23.8676 9.21459 24.1689C9.787 24.8962 10.6258 25.3659 11.5453 25.4754C12.464 25.5849 13.3891 25.326 14.1167 24.755C14.3327 24.5922 14.5366 24.3935 14.7129 24.1715C14.9515 23.8713 14.9045 23.4321 14.608 23.1906Z" fill="url(#paint0_linear_1297_2224)"/>
<circle cx="20" cy="6" r="5.5" fill="url(#paint1_linear_1297_2224)" stroke="url(#paint2_linear_1297_2224)"/>
<path d="M19.888 8.596C19.4827 8.596 19.144 8.524 18.872 8.38C18.6 8.23067 18.3787 8.06267 18.208 7.876L18.544 7.444C18.6987 7.604 18.88 7.74533 19.088 7.868C19.296 7.99067 19.5493 8.052 19.848 8.052C20.1573 8.052 20.4107 7.96667 20.608 7.796C20.8053 7.62533 20.904 7.39867 20.904 7.116C20.904 6.91333 20.8507 6.73733 20.744 6.588C20.6427 6.43333 20.472 6.31333 20.232 6.228C19.9973 6.14267 19.6773 6.1 19.272 6.1V5.596C19.6347 5.596 19.92 5.55333 20.128 5.468C20.3413 5.38267 20.4933 5.268 20.584 5.124C20.6747 4.98 20.72 4.82 20.72 4.644C20.72 4.39333 20.64 4.196 20.48 4.052C20.3253 3.908 20.112 3.836 19.84 3.836C19.6267 3.836 19.4293 3.884 19.248 3.98C19.072 4.076 18.9067 4.20133 18.752 4.356L18.4 3.94C18.5973 3.75333 18.816 3.60133 19.056 3.484C19.296 3.36133 19.5653 3.3 19.864 3.3C20.3067 3.3 20.672 3.41467 20.96 3.644C21.248 3.868 21.392 4.18533 21.392 4.596C21.392 4.90533 21.3067 5.15867 21.136 5.356C20.9653 5.55333 20.7413 5.70533 20.464 5.812V5.844C20.7733 5.91333 21.0347 6.06 21.248 6.284C21.4613 6.50267 21.568 6.788 21.568 7.14C21.568 7.43867 21.4933 7.69733 21.344 7.916C21.1947 8.13467 20.992 8.30267 20.736 8.42C20.4853 8.53733 20.2027 8.596 19.888 8.596Z" fill="url(#paint3_linear_1297_2224)"/>
<defs>
<linearGradient id="paint0_linear_1297_2224" x1="3.5" y1="5.5" x2="25.1201" y2="15.8371" gradientUnits="userSpaceOnUse">
<stop stop-color="#F5F5F5"/>
<stop offset="1" stop-color="#E0E0E0"/>
</linearGradient>
<linearGradient id="paint1_linear_1297_2224" x1="15" y1="1" x2="24.1667" y2="11" gradientUnits="userSpaceOnUse">
<stop stop-color="#F4A58A"/>
<stop offset="1" stop-color="#ED6B4E"/>
</linearGradient>
<linearGradient id="paint2_linear_1297_2224" x1="15" y1="1" x2="26.8694" y2="7.67656" gradientUnits="userSpaceOnUse">
<stop stop-color="#F5F5F5"/>
<stop offset="1" stop-color="#E0E0E0"/>
</linearGradient>
<linearGradient id="paint3_linear_1297_2224" x1="18" y1="0.5" x2="23.9488" y2="1.83849" gradientUnits="userSpaceOnUse">
<stop stop-color="#F5F5F5"/>
<stop offset="1" stop-color="#E0E0E0"/>
</linearGradient>
</defs>
</svg>
