<svg width="16" height="17" viewBox="0 0 16 17" fill="none" xmlns="http://www.w3.org/2000/svg">
<g id="Iconsax/Linear/profile">
<path id="Vector" d="M8.10666 7.74658C8.04 7.73991 7.96 7.73991 7.88666 7.74658C7.12147 7.7206 6.39643 7.3978 5.86508 6.84655C5.33374 6.2953 5.03783 5.55888 5.04 4.79324C5.04 3.15991 6.36 1.83324 8 1.83324C8.38827 1.82624 8.77413 1.89578 9.13553 2.0379C9.49693 2.18001 9.82679 2.39192 10.1063 2.66152C10.3858 2.93112 10.6095 3.25313 10.7645 3.60917C10.9196 3.96521 11.003 4.3483 11.01 4.73658C11.017 5.12485 10.9475 5.51071 10.8053 5.87211C10.6632 6.2335 10.4513 6.56337 10.1817 6.84288C9.91212 7.12238 9.59011 7.34605 9.23407 7.50111C8.87803 7.65616 8.49494 7.73957 8.10666 7.74658ZM4.77333 10.2066C3.16 11.2866 3.16 13.0466 4.77333 14.1199C6.60666 15.3466 9.61333 15.3466 11.4467 14.1199C13.06 13.0399 13.06 11.2799 11.4467 10.2066C9.62 8.98658 6.61333 8.98658 4.77333 10.2066Z" stroke="white" stroke-width="1.5" stroke-linecap="round" stroke-linejoin="round"/>
</g>
</svg>
