<svg width="16" height="17" viewBox="0 0 16 17" fill="none" xmlns="http://www.w3.org/2000/svg">
<g id="Iconsax/Bold/verify">
<path id="Vector" d="M14.3733 7.65939L13.4667 6.60606C13.2933 6.40605 13.1533 6.03272 13.1533 5.76605V4.63272C13.1533 3.92605 12.5733 3.34605 11.8667 3.34605H10.7333C10.4733 3.34605 10.0933 3.20605 9.89334 3.03272L8.84 2.12605C8.38 1.73272 7.62667 1.73272 7.16 2.12605L6.11334 3.03939C5.91334 3.20605 5.53334 3.34605 5.27334 3.34605H4.12C3.41334 3.34605 2.83334 3.92605 2.83334 4.63272V5.77272C2.83334 6.03272 2.69334 6.40605 2.52667 6.60606L1.62667 7.66605C1.24 8.12605 1.24 8.87272 1.62667 9.33272L2.52667 10.3927C2.69334 10.5927 2.83334 10.9661 2.83334 11.2261V12.3661C2.83334 13.0727 3.41334 13.6527 4.12 13.6527H5.27334C5.53334 13.6527 5.91334 13.7927 6.11334 13.9661L7.16667 14.8727C7.62667 15.2661 8.38 15.2661 8.84667 14.8727L9.9 13.9661C10.1 13.7927 10.4733 13.6527 10.74 13.6527H11.8733C12.58 13.6527 13.16 13.0727 13.16 12.3661V11.2327C13.16 10.9727 13.3 10.5927 13.4733 10.3927L14.38 9.33939C14.7667 8.87939 14.7667 8.11939 14.3733 7.65939ZM10.7733 7.23939L7.55334 10.4594C7.45959 10.553 7.3325 10.6056 7.2 10.6056C7.0675 10.6056 6.94042 10.553 6.84667 10.4594L5.23334 8.84606C5.14035 8.75196 5.0882 8.62501 5.0882 8.49272C5.0882 8.36044 5.14035 8.23348 5.23334 8.13939C5.42667 7.94605 5.74667 7.94605 5.94 8.13939L7.2 9.39939L10.0667 6.53272C10.26 6.33939 10.58 6.33939 10.7733 6.53272C10.9667 6.72605 10.9667 7.04605 10.7733 7.23939Z" fill="#1566C9"/>
</g>
</svg>
