<svg width="18" height="19" viewBox="0 0 18 19" fill="none" xmlns="http://www.w3.org/2000/svg">
<g id="Iconsax/Linear/eye">
<path id="Vector" d="M11.6849 9.49994C11.6849 10.9849 10.4849 12.1849 8.99994 12.1849C7.51494 12.1849 6.31494 10.9849 6.31494 9.49994C6.31494 8.01494 7.51494 6.81494 8.99994 6.81494C10.4849 6.81494 11.6849 8.01494 11.6849 9.49994Z" stroke="white" stroke-width="1.5" stroke-linecap="round" stroke-linejoin="round"/>
<path id="Vector_2" d="M9 15.7025C11.6475 15.7025 14.115 14.1425 15.8325 11.4425C16.5075 10.385 16.5075 8.60754 15.8325 7.55004C14.115 4.85004 11.6475 3.29004 9 3.29004C6.3525 3.29004 3.885 4.85004 2.1675 7.55004C1.4925 8.60754 1.4925 10.385 2.1675 11.4425C3.885 14.1425 6.3525 15.7025 9 15.7025Z" stroke="white" stroke-width="1.5" stroke-linecap="round" stroke-linejoin="round"/>
</g>
</svg>
