<svg width="16" height="16" viewBox="0 0 16 16" fill="none" xmlns="http://www.w3.org/2000/svg">
<g id="Iconsax/Bold/pause">
<path id="Vector" d="M6.6 3.26V12.74C6.6 13.1347 6.51449 13.2801 6.44719 13.3435C6.37224 13.4141 6.19726 13.5 5.76 13.5H3.34C2.90274 13.5 2.72776 13.4141 2.65281 13.3435C2.58551 13.2801 2.5 13.1347 2.5 12.74V3.26C2.5 2.86531 2.58551 2.71987 2.65281 2.65648C2.72776 2.58589 2.90274 2.5 3.34 2.5H5.76C6.19726 2.5 6.37224 2.58589 6.44719 2.65648C6.51449 2.71987 6.6 2.86531 6.6 3.26ZM13.5013 3.26V12.74C13.5013 13.1347 13.4158 13.2801 13.3485 13.3435C13.2736 13.4141 13.0986 13.5 12.6613 13.5H10.2413C9.80407 13.5 9.62909 13.4141 9.55415 13.3435C9.48684 13.2801 9.40133 13.1347 9.40133 12.74V3.26C9.40133 2.86741 9.48755 2.72131 9.55594 2.65714C9.6323 2.58549 9.80837 2.5 10.2413 2.5H12.6613C13.0986 2.5 13.2736 2.58589 13.3485 2.65648C13.4158 2.71987 13.5013 2.86531 13.5013 3.26Z" fill="white" stroke="white"/>
</g>
</svg>
