<svg width="29" height="28" viewBox="0 0 29 28" fill="none" xmlns="http://www.w3.org/2000/svg">
<g id="logos:google-icon" clip-path="url(#clip0_1355_5212)">
<path id="Vector" d="M28.4867 14.2619C28.4867 13.1148 28.3914 12.2777 28.1852 11.4095H14.7789V16.5872H22.6481C22.4895 17.8739 21.6328 19.8117 19.7289 21.1138L19.7022 21.2871L23.941 24.4957L24.2347 24.5243C26.9318 22.0905 28.4867 18.5095 28.4867 14.2619Z" fill="#4285F4"/>
<path id="Vector_2" d="M14.7789 27.9038C18.6341 27.9038 21.8707 26.6636 24.2347 24.5244L19.7289 21.1138C18.5231 21.9354 16.9048 22.509 14.7789 22.509C11.0029 22.509 7.79815 20.0753 6.65573 16.7113L6.48828 16.7252L2.08068 20.0582L2.02304 20.2147C4.3711 24.7723 9.19421 27.9038 14.7789 27.9038Z" fill="#34A853"/>
<path id="Vector_3" d="M6.65573 16.7113C6.3543 15.8432 6.17984 14.913 6.17984 13.9519C6.17984 12.9907 6.3543 12.0606 6.63988 11.1925L6.63189 11.0076L2.16906 7.62109L2.02305 7.68896C1.0553 9.58024 0.5 11.7041 0.5 13.9519C0.5 16.1997 1.0553 18.3234 2.02305 20.2147L6.65573 16.7113Z" fill="#FBBC05"/>
<path id="Vector_4" d="M14.7789 5.3947C17.4601 5.3947 19.2687 6.52635 20.3 7.47205L24.3299 3.6275C21.8549 1.37969 18.6341 0 14.7789 0C9.19421 0 4.3711 3.1314 2.02304 7.68899L6.63987 11.1925C7.79815 7.82857 11.0029 5.3947 14.7789 5.3947Z" fill="#EB4335"/>
</g>
<defs>
<clipPath id="clip0_1355_5212">
<rect width="28" height="28" fill="white" transform="translate(0.5)"/>
</clipPath>
</defs>
</svg>
