<svg width="309" height="106" viewBox="0 0 309 106" fill="none" xmlns="http://www.w3.org/2000/svg">
<g clip-path="url(#clip0_1735_14050)">
<path d="M220.851 10.9581V11.1689H222.115L220.851 10.9581Z" fill="#1566C9"/>
<path d="M202.095 19.1768L205.889 25.2882L207.996 27.817C214.71 17.036 232.441 14.6178 241.53 23.6655C247.722 29.8295 249.368 39.0972 248.246 47.4154H211.578C211.578 49.6467 211.796 52.0366 212.535 54.1589C213.167 55.9679 213.977 57.6888 215.14 59.2166C221.932 68.1461 234.898 65.7761 244.032 62.7991C244.382 64.4997 245.85 67.5948 245.461 69.2602C245.166 70.5234 241.541 71.1754 240.449 71.4637C236.393 72.534 232.195 72.9144 228.016 72.9144C226.747 72.9144 223.664 72.0873 222.625 72.7178C222.048 73.0682 221.892 74.0092 221.694 74.6003C221.11 76.3513 220.421 78.0663 220.008 79.8687C222.41 79.9717 224.752 80.437 227.173 80.2714C235.937 79.671 244.557 76.5279 250.986 70.3774C254.162 67.3404 256.891 63.6555 258.691 59.6381C261.082 54.3012 262.395 48.0033 261.696 42.147C259.447 23.3582 241.284 8.7509 222.326 11.0184C214.449 11.9604 208.697 15.0658 202.095 19.1768Z" fill="#1566C9"/>
<path d="M229.28 10.9581V11.1689H230.545L229.28 10.9581ZM219.586 11.1689V11.3796H220.64L219.586 11.1689ZM230.545 11.1689V11.3796H231.809L230.545 11.1689ZM218.322 11.3796V11.5903H219.376L218.322 11.3796ZM232.02 11.3796V11.5903H233.073L232.02 11.3796ZM217.479 11.5903V11.8011H218.111L217.479 11.5903ZM233.073 11.5903V11.8011H233.916L233.073 11.5903ZM216.425 11.8011V12.0118H217.268L216.425 11.8011ZM234.127 11.8011V12.0118H234.759L234.127 11.8011ZM234.97 12.0118V12.2225H235.602L234.97 12.0118ZM214.95 12.2225V12.4333H215.582L214.95 12.2225ZM236.445 12.4333V12.644H237.077L236.445 12.4333ZM237.71 12.8548V13.0655H238.342L237.71 12.8548ZM212.421 13.0655V13.2762H213.054L212.421 13.0655ZM238.342 13.0655V13.2762H238.974L238.342 13.0655ZM211.789 13.2762V13.487H212.421L211.789 13.2762ZM224.855 18.1231V18.3339H229.07L224.855 18.1231ZM222.958 18.3339V18.5446H224.433L222.958 18.3339ZM229.491 18.3339V18.5446H230.755L229.491 18.3339ZM221.905 18.5446V18.7553H222.747L221.905 18.5446ZM231.177 18.5446V18.7553H232.02L231.177 18.5446ZM220.851 18.7553V18.9661H221.483L220.851 18.7553ZM232.231 18.7553V18.9661H232.863L232.231 18.7553ZM233.073 18.9661V19.1768H233.706L233.073 18.9661ZM219.376 19.1768V19.3876H220.008L219.376 19.1768ZM218.743 19.3876V19.5983H219.376L218.743 19.3876ZM218.111 19.5983V19.809H218.743L218.111 19.5983ZM148.358 24.8667V25.0774H148.99L148.358 24.8667Z" fill="#1566C9"/>
<path d="M142.457 35.1929C141.72 35.1929 140.799 35.061 140.17 35.5307C139.179 36.2719 139.179 38.7501 140.17 39.4913C140.799 39.961 141.72 39.8291 142.457 39.8291V51.6303C142.457 53.387 142.089 55.6153 142.524 57.3191C142.929 58.9019 146.337 59.1036 147.484 58.2468C148.648 57.3766 148.147 54.8067 148.147 53.5269V39.8291C149.398 39.8291 151.653 40.2634 152.752 39.6125C153.781 39.0037 153.781 36.0184 152.752 35.4096C151.653 34.7586 149.398 35.1929 148.147 35.1929C148.147 33.7045 147.679 31.3316 148.827 30.1833C150.56 28.4513 153.977 30.9095 155.396 29.2253C156.093 28.3975 155.734 26.5171 155.734 25.4991C151.392 24.681 145.304 24.0328 143.25 29.0816C142.504 30.9175 142.463 33.2297 142.457 35.1929Z" fill="white"/>
<path d="M151.519 24.8668V25.0776H152.362L151.519 24.8668Z" fill="#1566C9"/>
<path d="M152.362 24.8668V25.0776H153.205L152.362 24.8668ZM225.487 24.8668V25.0776H226.962L225.487 24.8668Z" fill="#1566C9"/>
<path d="M223.801 25.0774V25.2881H224.855L223.801 25.0774Z" fill="#1566C9"/>
<path d="M211.579 40.2504L220.64 40.4611H239.396C239.385 36.8533 238.58 32.6289 236.334 29.7136C232.216 24.3689 223.942 23.7262 218.533 27.4151C214.141 30.4109 212.824 35.4372 211.579 40.2504Z" fill="#1566C9"/>
<path d="M227.594 25.0774V25.2881H228.859L227.594 25.0774Z" fill="#1566C9"/>
<path d="M169.853 25.2882V52.6838H170.064V33.5069C170.064 31.1555 170.761 27.4516 169.853 25.2882Z" fill="white"/>
<path d="M170.064 25.2882V46.151C170.064 49.0364 169.392 52.8689 171.005 55.4202C172.441 57.6905 175.25 57.7415 177.65 57.7415V52.4731C174.515 52.0008 175.332 48.3355 175.332 45.9403V25.2882H170.064Z" fill="white"/>
<path d="M175.332 25.2882V50.9979H175.543V33.0854C175.543 30.8445 176.198 27.3511 175.332 25.2882Z" fill="white"/>
<path d="M186.29 58.5844L186.501 56.8985C188.273 57.991 189.689 58.6365 191.769 58.9163C204.492 60.6277 206.862 36.8203 194.509 34.8956C193.266 34.7022 191.923 34.8459 190.716 35.2018C189.23 35.6402 188.033 36.4515 186.922 37.5109V29.9244C186.922 28.8515 187.186 27.3595 186.795 26.3459C186.209 24.825 182.419 24.758 181.66 26.1436C180.726 27.8491 181.443 31.5774 181.443 33.5069V50.7872C181.443 52.6185 180.772 56.1076 181.66 57.729C182.411 59.1001 184.983 58.5844 186.29 58.5844Z" fill="white"/>
<path d="M222.748 25.2882V25.4989H223.38L222.748 25.2882ZM229.28 25.2882V25.4989H229.913L229.28 25.2882Z" fill="#1566C9"/>
<path d="M221.904 25.499V25.7098H222.537L221.904 25.499ZM230.123 25.499V25.7098H230.755L230.123 25.499Z" fill="#1566C9"/>
<path d="M209.26 25.7096V26.1311L209.682 25.7096H209.26ZM230.755 25.7096V25.9203H231.388L230.755 25.7096Z" fill="#1566C9"/>
<path d="M181.233 26.1312V57.7416H181.443V35.6143C181.443 32.9319 182.267 28.5956 181.233 26.1312ZM186.922 26.1312V34.3499L187.344 37.3002L186.922 26.1312Z" fill="white"/>
<path d="M44.8867 53.7376V44.6759H51.6302C52.5157 44.6759 53.7944 44.9022 54.5493 44.3381C55.6917 43.484 55.5513 40.4943 54.155 39.9561C51.7143 39.0156 47.5057 39.829 44.8867 39.829V32.2425H52.4731C53.546 32.2425 55.038 32.5059 56.0516 32.1155C57.304 31.6327 57.4735 29.3112 56.8927 28.251C56.2145 27.0127 54.2783 27.3956 53.1053 27.3956H43.2008C42.1222 27.3956 40.311 27.0477 39.4745 27.8841C38.2603 29.0983 38.9861 33.1441 38.9861 34.7714V51.6302C38.9861 53.2107 38.3484 56.6162 39.3239 57.9211C40.3887 59.3454 44.7408 58.5845 46.3618 58.5845H54.7912C55.7216 58.5845 57.2387 58.8359 57.7715 57.8399C58.335 56.7863 58.1815 54.2595 56.8893 53.8459C55.7724 53.4882 54.2688 53.7376 53.1053 53.7376H44.8867Z" fill="white"/>
<path d="M158.696 27.6122C157.525 28.2535 157.432 31.4234 158.179 32.4221C158.873 33.3512 161.501 33.3967 162.465 32.8688C163.636 32.2275 163.729 29.0577 162.982 28.059C162.287 27.1299 159.66 27.0843 158.696 27.6122Z" fill="white"/>
<path d="M57.1094 28.2384V31.3995H57.3201L57.1094 28.2384Z" fill="white"/>
<path d="M157.63 28.2385V32.2425H157.841L157.63 28.2385ZM163.32 28.2385V32.2425H163.531L163.32 28.2385Z" fill="white"/>
<path d="M149.622 29.5031V29.7138H150.255L149.622 29.5031ZM151.519 29.5031V29.7138H152.573L151.519 29.5031Z" fill="white"/>
<path d="M153.626 29.7136V29.9244H154.258L153.626 29.7136Z" fill="white"/>
<path d="M154.258 29.7136V29.9244H154.891L154.258 29.7136Z" fill="white"/>
<path d="M142.457 31.1889V32.0319H142.668L142.457 31.1889ZM148.147 31.1889V31.8211H148.358L148.147 31.1889Z" fill="white"/>
<path d="M142.457 32.0317V33.5069H142.668L142.457 32.0317Z" fill="white"/>
<path d="M246.982 32.6639V33.2961H247.193L246.982 32.6639Z" fill="white"/>
<path d="M259.416 33.0855V33.7177H259.626L259.416 33.0855ZM247.193 33.2962V33.9284H247.404L247.193 33.2962ZM213.265 33.7177V34.3499H213.475L213.265 33.7177ZM247.404 33.9284V34.7714H247.615L247.404 33.9284ZM238.553 34.1392V34.9821H238.764L238.553 34.1392ZM259.837 34.3499V34.9821H260.048L259.837 34.3499Z" fill="#1566C9"/>
<path d="M69.3319 34.7712V34.982H69.9641L69.3319 34.7712Z" fill="white"/>
<path d="M76.2862 55.4234C76.2856 60.4975 73.3142 62.9272 68.2783 62.0373C67.0271 61.8162 64.6328 60.4977 63.4626 61.1541C62.3878 61.7568 62.4249 64.4391 62.3777 65.5387C67.3546 66.6796 73.7258 68.0348 78.1826 64.5842C80.7186 62.6208 81.3521 59.4944 81.5734 56.477C81.8914 52.139 81.7654 47.7665 81.7654 43.4114C81.7654 41.365 82.3754 38.1637 81.6383 36.2504C80.9051 34.3479 77.0303 34.9133 76.2862 36.4572C74.4596 35.4962 72.5128 34.6299 70.3856 34.8079C61.0098 35.5921 58.1118 47.5077 62.8213 54.5804C65.9119 59.2221 72.5273 59.0101 76.2862 55.4234Z" fill="white"/>
<path d="M71.6501 34.7712V34.982H72.2824L71.6501 34.7712Z" fill="white"/>
<path d="M99.6779 34.7712V34.982H100.31L99.6779 34.7712Z" fill="white"/>
<path d="M94.6201 37.7216C94.6174 36.9267 94.6682 36.0624 93.9567 35.5305C92.9014 34.7418 89.7913 34.8926 89.2681 36.2504C88.6934 37.742 89.141 40.136 89.141 41.7255V52.6838C89.141 54.1016 88.7545 56.1938 89.2681 57.5267C89.7913 58.8845 92.9014 59.0354 93.9567 58.2466C95.093 57.3969 94.6201 54.984 94.6201 53.7375C94.6201 50.9229 93.8254 46.6953 94.7735 44.0436C95.5385 41.9038 98.5579 39.4719 100.942 39.8778C103.118 40.2483 102.839 42.6051 102.839 44.2544C102.839 48.3829 102.232 53.0342 102.87 57.109C103.138 58.8181 106.645 59.2448 107.829 58.2466C108.528 57.6576 108.318 56.4431 108.318 55.6341V48.8905C108.318 45.7647 108.998 41.7152 107.796 38.7752C105.299 32.6652 98.5796 35.0168 94.6201 37.7216Z" fill="white"/>
<path d="M102.628 34.7712V34.982H103.26L102.628 34.7712ZM122.648 34.7712V34.982H123.28L122.648 34.7712Z" fill="white"/>
<path d="M123.28 34.7712V34.982H123.913L123.28 34.7712Z" fill="white"/>
<path d="M123.913 34.8606C121.45 35.1871 119.044 35.7622 117.188 37.5475C112.421 42.1325 112.497 52.2585 117.599 56.5892C120.205 58.8015 123.821 59.1898 127.074 58.7616C140.619 56.9786 138.057 32.9861 123.913 34.8606Z" fill="white"/>
<path d="M125.809 34.7712V34.982H126.441L125.809 34.7712Z" fill="white"/>
<path d="M126.441 34.7712V34.982H127.074L126.441 34.7712Z" fill="white"/>
<path d="M191.98 34.7712V34.982H192.612L191.98 34.7712ZM194.298 34.7712V34.982H194.93L194.298 34.7712Z" fill="white"/>
<path d="M212.843 34.7712V35.4034H213.054L212.843 34.7712Z" fill="#1566C9"/>
<path d="M247.614 34.9821V35.6143H247.825L247.614 34.9821ZM260.048 34.9821V35.6143H260.258L260.048 34.9821Z" fill="white"/>
<path d="M158.696 35.4096C157.171 36.2447 157.841 39.8295 157.841 41.3043V52.4733C157.841 53.9484 157.434 56.1409 157.968 57.5269C158.484 58.864 161.351 58.9782 162.465 58.368C163.99 57.5326 163.32 53.948 163.32 52.4733V41.3043C163.32 39.8291 163.727 37.6366 163.193 36.2506C162.678 34.9135 159.811 34.7993 158.696 35.4096Z" fill="white"/>
<path d="M238.763 35.1926V35.8248H238.974L238.763 35.1926Z" fill="#1566C9"/>
<path d="M260.258 35.6143V36.2465H260.469L260.258 35.6143Z" fill="white"/>
<path d="M238.974 35.825V37.3001H239.185L238.974 35.825ZM81.7655 36.0357V54.1589H81.9762V41.7255L81.7655 36.0357ZM88.9305 36.0357V57.7415H89.1412V42.5685L88.9305 36.0357ZM94.6203 36.0357V37.7216H94.8311L94.6203 36.0357Z" fill="#1566C9"/>
<path d="M139.296 36.0356V38.9859H139.507L139.296 36.0356Z" fill="white"/>
<path d="M153.415 36.0356V38.9859H153.626L153.415 36.0356Z" fill="white"/>
<path d="M157.63 36.0356V57.7414H157.841V42.5684L157.63 36.0356ZM163.32 36.0356V57.7414H163.531V42.5684L163.32 36.0356Z" fill="white"/>
<path d="M248.036 37.0894V38.143H248.246L248.036 37.0894Z" fill="white"/>
<path d="M239.185 37.7217V38.7754H239.396L239.185 37.7217Z" fill="#1566C9"/>
<path d="M211.789 38.1431V38.986H212L211.789 38.1431Z" fill="#1566C9"/>
<path d="M261.101 38.7753V39.8289H261.312L261.101 38.7753Z" fill="white"/>
<path d="M248.247 38.9861V39.6183H248.457L248.247 38.9861Z" fill="white"/>
<path d="M211.578 39.1969V40.0398H211.789L211.578 39.1969Z" fill="#1566C9"/>
<path d="M70.807 39.506C64.9812 40.4946 64.6653 53.882 71.2285 53.0096C72.9601 52.7794 75.0388 51.7923 75.8588 50.1549C76.3734 49.1274 76.0754 47.4841 76.0754 46.3617C76.0754 44.9942 76.4362 43.0175 75.9483 41.7287C75.3031 40.0242 72.4421 39.2287 70.807 39.506Z" fill="#181829"/>
<path d="M123.702 39.4075V39.6182H124.334L123.702 39.4075Z" fill="white"/>
<path d="M124.334 39.5031C117.467 40.4158 117.987 55.2577 125.388 54.274C132.282 53.3577 131.803 38.5103 124.334 39.5031Z" fill="#181829"/>
<path d="M125.388 39.4075V39.6182H126.02L125.388 39.4075Z" fill="white"/>
<path d="M239.395 39.6183V40.4612H239.606L239.395 39.6183ZM248.457 39.6183V45.9404H248.668L248.457 39.6183Z" fill="#1566C9"/>
<path d="M191.98 39.9247C190.311 40.1521 188.138 41.2102 187.35 42.7795C186.811 43.8522 187.133 45.6095 187.133 46.7833C187.133 48.2976 186.697 50.6168 187.26 52.0327C187.928 53.7104 190.782 54.4952 192.402 54.2741C196.95 53.6529 197.206 46.8994 196.355 43.4115C195.836 41.2842 194.317 39.6067 191.98 39.9247Z" fill="#181829"/>
<path d="M193.034 39.8291V40.0398H193.666L193.034 39.8291Z" fill="white"/>
<path d="M261.312 40.0397L261.523 41.7256H261.734L261.312 40.0397Z" fill="white"/>
<path d="M211.579 40.2505C212.603 41.422 217.199 40.672 218.744 40.672H239.396V40.4612H221.062L211.579 40.2505Z" fill="#1566C9"/>
<path d="M108.318 40.4612V41.0934H108.529L108.318 40.4612Z" fill="white"/>
<path d="M108.318 41.0934V57.7415H108.529V46.3618L108.318 41.0934Z" fill="white"/>
<path d="M76.0756 41.5148V50.1549H76.2863C76.2863 47.6902 77.0262 43.7802 76.0756 41.5148ZM102.628 41.5148V42.147H102.839L102.628 41.5148Z" fill="white"/>
<path d="M186.923 42.7792V52.0515H187.133C187.133 49.4216 187.936 45.1948 186.923 42.7792Z" fill="white"/>
<path d="M202.306 42.7792V43.4114H202.517L202.306 42.7792Z" fill="white"/>
<path d="M135.714 43.6221V44.2543H135.924L135.714 43.6221Z" fill="white"/>
<path d="M94.6204 43.8329V57.7414H94.8311V48.2583L94.6204 43.8329ZM113.797 43.8329V44.4651H114.008L113.797 43.8329Z" fill="white"/>
<path d="M202.517 44.4651V45.9402H202.728L202.517 44.4651Z" fill="white"/>
<path d="M130.024 44.6759V45.3081H130.235L130.024 44.6759ZM196.616 44.6759V45.3081H196.827L196.616 44.6759Z" fill="white"/>
<path d="M66.3816 45.0973V48.2583H66.5923L66.3816 45.0973Z" fill="white"/>
<path d="M119.487 45.0973V45.9402H119.698L119.487 45.0973Z" fill="white"/>
<path d="M135.924 45.0973V46.151H136.135L135.924 45.0973ZM60.4811 45.308V48.2583H60.6918L60.4811 45.308ZM113.586 45.308V48.4691H113.797L113.586 45.308ZM130.024 45.308V48.4691H130.235L130.024 45.308ZM196.616 45.308V47.8369H196.827L196.616 45.308ZM119.487 45.9402V47.8369H119.698L119.487 45.9402Z" fill="white"/>
<path d="M202.517 45.9402V46.5724H202.728L202.517 45.9402Z" fill="white"/>
<path d="M248.247 45.9402V46.7831H248.457L248.247 45.9402Z" fill="white"/>
<path d="M135.924 46.151V47.6262H136.135L135.924 46.151Z" fill="white"/>
<g filter="url(#filter0_d_1735_14050)">
<path d="M202.517 46.5726V48.2585H202.728L202.517 46.5726ZM211.368 47.2048V49.5229H211.579V47.4156H248.247L244.664 47.2048H237.288H211.368ZM135.924 47.6263V48.68H136.135L135.924 47.6263Z" fill="#1566C9"/>
</g>
<path d="M119.487 47.8369V48.6799H119.698L119.487 47.8369ZM196.616 47.8369V48.4691H196.827L196.616 47.8369ZM66.3815 48.2584V48.8906H66.5923L66.3815 48.2584Z" fill="white"/>
<path d="M196.405 48.8905V49.5227H196.616L196.405 48.8905ZM202.306 49.1012V49.7334H202.517L202.306 49.1012ZM113.797 49.312V49.9442H114.008L113.797 49.312Z" fill="white"/>
<path d="M261.523 49.3121L261.312 51.2088H261.523V49.3121Z" fill="white"/>
<path d="M135.714 49.5227V50.1549H135.924L135.714 49.5227Z" fill="white"/>
<path d="M211.579 49.7335V50.9979H211.789L211.579 49.7335Z" fill="white"/>
<path d="M211.789 51.2086V52.2623H212L211.789 51.2086ZM261.101 51.2086V52.473H261.312L261.101 51.2086Z" fill="white"/>
<path d="M176.807 52.2623V52.4731H177.65L176.807 52.2623Z" fill="white"/>
<path d="M69.5428 52.8945V53.1053H70.1751L69.5428 52.8945Z" fill="white"/>
<path d="M123.702 54.1591V54.3698H124.334L123.702 54.1591ZM125.388 54.1591V54.3698H126.02L125.388 54.1591Z" fill="white"/>
<path d="M190.716 54.1591V54.3698H191.348L190.716 54.1591ZM192.402 54.1591V54.3698H193.034L192.402 54.1591Z" fill="white"/>
<path d="M57.9523 54.5804V57.7414H58.163L57.9523 54.5804Z" fill="white"/>
<path d="M212.843 55.0018V55.634H213.054L212.843 55.0018Z" fill="white"/>
<path d="M75.8649 55.6343L76.0756 57.5309H76.2863L75.8649 55.6343Z" fill="white"/>
<path d="M81.5546 55.6343V56.4772H81.7653L81.5546 55.6343Z" fill="white"/>
<path d="M260.048 55.6343V56.2665H260.258L260.048 55.6343Z" fill="white"/>
<path d="M81.5546 56.4771V57.32H81.7653L81.5546 56.4771Z" fill="white"/>
<path d="M186.501 56.8986V57.32L186.922 56.8986H186.501Z" fill="white"/>
<path d="M174.489 57.5308V57.7415H175.121L174.489 57.5308Z" fill="white"/>
<path d="M67.8567 57.9521V58.1629H68.4889L67.8567 57.9521Z" fill="white"/>
<path d="M68.4891 57.9521V58.1629H69.1213L68.4891 57.9521ZM70.8072 57.9521V58.1629H71.4394L70.8072 57.9521Z" fill="white"/>
<path d="M81.344 58.163V58.7952H81.5547L81.344 58.163Z" fill="white"/>
<path d="M122.648 58.7951V59.0058H123.28L122.648 58.7951Z" fill="white"/>
<path d="M123.28 58.7952V59.0059H123.913L123.28 58.7952ZM125.809 58.7952V59.0059H126.652L125.809 58.7952Z" fill="white"/>
<path d="M190.505 58.7952V59.0059H191.137L190.505 58.7952Z" fill="white"/>
<path d="M191.137 58.7952V59.0059H191.769L191.137 58.7952Z" fill="white"/>
<path d="M193.877 58.7952V59.0059H194.509L193.877 58.7952Z" fill="white"/>
<path d="M62.5884 61.9562V62.5884H62.7991L62.5884 61.9562Z" fill="white"/>
<path d="M68.7 61.9562V62.1669H69.5429L68.7 61.9562ZM71.2288 61.9562V62.1669H72.0717L71.2288 61.9562Z" fill="white"/>
<path d="M242.346 63.2207V63.4314H242.978L242.346 63.2207ZM244.032 63.2207V63.8529H244.243L244.032 63.2207ZM62.3778 63.4314V64.0636H62.5885L62.3778 63.4314Z" fill="white"/>
<path d="M239.817 64.0635V64.2742H240.449L239.817 64.0635ZM244.243 64.0635V64.9064H244.453L244.243 64.0635ZM222.748 64.4849V64.6957H223.38L222.748 64.4849ZM238.131 64.4849V64.6957H238.974L238.131 64.4849Z" fill="white"/>
<path d="M223.38 64.6957V64.9064H224.012L223.38 64.6957ZM237.078 64.6957V64.9064H238.131L237.078 64.6957ZM62.167 64.9064V65.5386H62.3777L62.167 64.9064ZM224.223 64.9064V65.1171H225.066L224.223 64.9064ZM235.813 64.9064V65.1171H237.078L235.813 64.9064Z" fill="white"/>
<path d="M225.276 65.1173V65.328H226.33L225.276 65.1173ZM234.127 65.1173V65.328H235.602L234.127 65.1173ZM244.453 65.1173V65.7495H244.664L244.453 65.1173Z" fill="white"/>
<path d="M226.541 65.3279V65.5386H228.648L226.541 65.3279ZM230.334 65.3279V65.5386H233.495L230.334 65.3279Z" fill="white"/>
<path d="M65.7494 66.3815V66.5922H66.3816L65.7494 66.3815Z" fill="white"/>
<path d="M67.4353 66.5923V66.8031H68.2782L67.4353 66.5923Z" fill="white"/>
<path d="M68.2783 66.5924V66.8031H69.1213L68.2783 66.5924ZM71.4394 66.5924V66.8031H72.2823L71.4394 66.5924Z" fill="white"/>
<path d="M72.2823 66.5924V66.8031H72.9146L72.2823 66.5924ZM244.875 66.8031V67.4353H245.086L244.875 66.8031ZM245.086 67.6461V68.2783H245.296L245.086 67.6461ZM245.296 68.2783V69.332H245.507L245.296 68.2783ZM241.082 71.0179V71.2286H241.714L241.082 71.0179Z" fill="white"/>
<path d="M93.145 87.6659C93.3739 85.0441 95.5091 80.9925 98.4134 80.9223V80.7116C95.5162 78.7248 91.9594 84.4863 92.1761 87.236C92.3316 89.2095 94.2923 87.9748 95.0408 87.2413C95.4513 86.839 95.8429 86.4192 96.2135 85.98C96.8255 85.2546 97.4109 84.5367 97.7812 83.6619H97.9919C97.8663 85.2401 96.6241 87.6062 98.4134 88.5088L99.8886 85.1371L98.6241 85.98C99.5381 82.4474 100.185 78.9846 101.762 75.654C102.529 74.0338 103.373 72.357 105.368 72.7037C103.44 70.0943 101.949 72.5597 101.007 74.6003C99.3118 78.2753 98.7167 81.9347 96.0776 85.1371C95.2448 86.1475 94.4486 87.3 93.145 87.6659Z" fill="white"/>
<path d="M117.59 87.6659C117.819 85.0441 119.954 80.9925 122.859 80.9223V80.7116C119.962 78.7248 116.405 84.4865 116.621 87.236C116.777 89.2095 118.738 87.9748 119.486 87.2413C119.897 86.839 120.289 86.4192 120.659 85.98C121.271 85.2546 121.856 84.5367 122.227 83.6619H122.437C122.312 85.2401 121.069 87.6062 122.859 88.5088L124.334 85.1371L123.07 85.98C123.984 82.4474 124.631 78.9846 126.207 75.654C126.974 74.0338 127.819 72.357 129.813 72.7037C127.886 70.0943 126.394 72.5597 125.453 74.6003C123.757 78.2751 123.162 81.9347 120.523 85.1371C119.69 86.1475 118.894 87.3 117.59 87.6659Z" fill="white"/>
<path d="M240.239 71.2286V71.4394H241.082L240.239 71.2286Z" fill="white"/>
<path d="M239.396 71.4392V71.6499H240.238L239.396 71.4392ZM139.507 71.6499V71.8607H140.139L139.507 71.6499ZM238.553 71.6499V71.8607H239.396L238.553 71.6499Z" fill="white"/>
<path d="M134.028 80.9224H135.292C134.588 83.9648 133.53 86.9408 132.791 89.984C132.446 91.4039 131.892 92.9642 133.606 93.5665C133.606 90.4141 134.428 87.2925 135.364 84.2942C135.644 83.3964 135.788 81.9333 136.494 81.2602C137.073 80.7079 138.333 80.7439 139.085 80.7116V80.2902L136.767 80.0794C137.369 77.5426 138.753 72.3046 142.036 73.3359C141.326 72.0418 139.65 71.3965 138.62 72.7161C137.151 74.5965 136.955 77.1881 135.812 79.2272C135.368 80.02 134.487 80.1903 134.028 80.9224Z" fill="white"/>
<path d="M237.499 71.8608V72.0716H238.342L237.499 71.8608Z" fill="white"/>
<path d="M236.445 72.0714V72.2821H237.077L236.445 72.0714Z" fill="white"/>
<path d="M234.759 72.2822V72.493H236.024L234.759 72.2822Z" fill="white"/>
<path d="M223.38 72.4929V72.7037H224.644L223.38 72.4929ZM232.652 72.4929V72.7037H234.338L232.652 72.4929Z" fill="white"/>
<path d="M225.066 72.7036V72.9143H232.02L225.066 72.7036Z" fill="white"/>
<path d="M140.139 72.9143V73.125H140.982L140.139 72.9143Z" fill="white"/>
<path d="M80.0796 80.501V80.7117L81.1332 80.9225C80.8329 82.963 79.5011 85.3622 79.7854 87.446C80.1224 89.9152 82.6343 87.0785 83.0299 86.1909L80.9225 87.666C80.7449 86.0659 81.2123 82.201 82.5051 81.0788C83.1133 80.5512 84.1841 80.7206 84.9265 80.501V80.2903H82.6084C82.8935 78.6335 83.6391 76.2629 85.348 75.6541C84.7693 74.8103 83.8471 74.8099 83.2341 75.6671C81.9235 77.5005 82.3235 79.4275 80.0796 80.501Z" fill="white"/>
<path d="M154.048 80.501V80.7117L155.101 80.9225C154.801 82.963 153.469 85.3622 153.753 87.446C154.09 89.9152 156.602 87.0785 156.998 86.1909L154.891 87.666C154.713 86.0659 155.18 82.201 156.473 81.0788C157.081 80.5512 158.152 80.7206 158.895 80.501V80.2903H156.576C156.862 78.6335 157.607 76.2629 159.316 75.6541C158.737 74.8103 157.815 74.8099 157.202 75.6671C155.892 77.5005 156.292 79.4275 154.048 80.501Z" fill="white"/>
<path d="M221.272 75.0218V75.654H221.483L221.272 75.0218Z" fill="white"/>
<path d="M220.851 76.2863V76.9185H221.062L220.851 76.2863Z" fill="white"/>
<path d="M103.26 78.1828C104.353 78.1564 105.075 77.9385 105.578 76.9184C104.427 76.451 103.747 77.1426 103.26 78.1828Z" fill="white"/>
<path d="M127.706 78.1828C128.798 78.1564 129.521 77.9385 130.024 76.9184C128.872 76.451 128.193 77.1426 127.706 78.1828Z" fill="white"/>
<path d="M161.424 76.4971L160.159 78.183H160.37L161.424 76.4971Z" fill="white"/>
<path d="M160.37 78.1828C161.462 78.1564 162.185 77.9385 162.688 76.9184C161.536 76.451 160.857 77.1426 160.37 78.1828Z" fill="white"/>
<path d="M239.185 77.5505V77.7613H239.817L239.185 77.5505Z" fill="white"/>
<path d="M238.131 77.9722V78.1829H238.763L238.131 77.9722Z" fill="white"/>
<path d="M103.471 78.183V78.3937H104.314L103.471 78.183Z" fill="white"/>
<path d="M127.916 78.183V78.3937H128.549L127.916 78.183Z" fill="white"/>
<path d="M160.581 78.183V78.3937H161.424L160.581 78.183Z" fill="white"/>
<path d="M220.219 78.183V78.8152H220.429L220.219 78.183ZM237.499 78.183V78.3937H238.131L237.499 78.183Z" fill="white"/>
<path d="M234.759 79.0258V79.2365H235.392L234.759 79.0258Z" fill="white"/>
<path d="M233.706 79.2366V79.4473H234.549L233.706 79.2366Z" fill="white"/>
<path d="M232.652 79.4473V79.658H233.706L232.652 79.4473Z" fill="white"/>
<path d="M77.7614 82.1868C78.9796 81.8203 79.0163 80.7898 79.0258 79.658C77.8524 80.0893 77.9649 81.0914 77.7614 82.1868Z" fill="white"/>
<path d="M184.815 79.658V79.8687H185.447L184.815 79.658Z" fill="white"/>
<path d="M206.942 80.0794C204.425 79.5098 204.634 82.278 202.938 83.2405C203.358 84.5658 202.197 85.9286 202.682 87.2078C203.898 90.4158 207.257 86.5642 207.996 85.1371C206.764 85.7113 205.804 87.3831 204.426 87.5978C202.996 87.8206 203.711 84.7371 204.322 84.2294C204.88 83.7648 205.849 84.1572 206.517 83.895C208.162 83.2493 207.785 81.0701 207.785 79.658L206.942 80.0794Z" fill="white"/>
<path d="M207.785 79.658V82.1868H207.996L207.785 79.658ZM231.598 79.658V79.8687H232.652L231.598 79.658ZM77.3397 79.8687V80.5009H77.5505L77.3397 79.8687ZM79.0256 79.8687V80.7116H79.2363L79.0256 79.8687Z" fill="white"/>
<path d="M110.425 83.2405H110.636C110.177 84.6752 108.713 87.8019 110.636 88.5089L112.111 84.9264L110.847 85.9801L112.322 80.9224L111.268 80.501C110.436 82.9408 107.972 86.9349 105.368 87.666C106.061 85.2218 107.661 81.0189 110.636 80.9224C108.234 77.8944 104.726 84.8655 104.6 87.0329C104.479 89.1371 106.591 88.1058 107.386 87.2361C107.824 86.7564 108.258 86.2654 108.677 85.7693C109.34 84.9846 109.967 84.16 110.425 83.2405Z" fill="white"/>
<path d="M144.143 83.2405C143.487 84.5481 142.318 87.6185 143.932 88.5089L145.408 85.1371L144.354 85.98C144.552 84.5116 146.558 81.1066 144.565 80.5009C143.996 82.8925 141.326 86.9779 138.875 87.6659C139.097 85.1396 141.349 81.013 144.143 80.9224C141.664 77.9628 138.423 84.4438 138.101 86.6122C137.764 88.8865 139.682 88.32 140.768 87.2413C141.171 86.8413 141.546 86.4179 141.906 85.98C142.653 85.0732 143.277 84.032 144.143 83.2405Z" fill="white"/>
<path d="M148.358 85.5587H148.147L149.833 80.5011C148.494 80.0598 147.765 81.513 147.304 82.6084L148.358 81.7655C147.978 83.4065 145.702 87.6878 147.936 88.509C148.799 85.8588 149.816 82.6419 152.151 80.9225C152.022 81.9448 151.637 82.9907 152.783 83.4514C152.855 82.8866 152.958 82.3281 153.046 81.7655C153.237 80.5333 152.415 79.2444 151.257 80.5331C150.017 81.9145 149.066 83.8568 148.358 85.5587Z" fill="white"/>
<path d="M171.328 83.2405H171.539C171.08 84.6752 169.616 87.8019 171.539 88.5089L173.014 84.9264L171.75 85.9801L173.225 80.9224L172.171 80.501C171.339 82.9408 168.875 86.9349 166.27 87.666C166.964 85.2218 168.564 81.0189 171.539 80.9224C169.137 77.8944 165.628 84.8655 165.503 87.0329C165.381 89.1371 167.494 88.1058 168.288 87.2361C168.726 86.7564 169.16 86.2654 169.58 85.7693C170.243 84.9846 170.87 84.16 171.328 83.2405Z" fill="white"/>
<path d="M175.754 79.8687L174.489 81.976L175.964 80.9223L174.278 88.0873L175.121 88.5088C176.635 85.6666 177.623 82.4508 180.39 80.5009L178.915 88.0873L179.968 88.5088C180.833 85.9517 182.708 81.6454 185.447 80.7116L183.551 88.5088C185.234 88.7893 186.222 86.062 186.712 84.7156H186.501L185.658 85.7692C185.961 84.4494 187.141 81.8719 186.284 80.601C184.753 78.329 181.629 83.4727 181.233 84.7156H181.022C181.162 83.6101 181.881 81.5897 181.227 80.5839C179.743 78.302 176.965 83.3466 176.596 84.5048C176.323 82.808 177.902 80.7289 175.754 79.8687Z" fill="white"/>
<path d="M193.034 83.2404H193.245L192.191 88.0873L193.245 88.5088L194.72 84.9263L193.877 85.98H193.666C193.786 84.5109 195.794 81.0846 193.877 80.5008C193.173 82.9437 190.664 86.8235 188.187 87.6658C188.321 85.0544 190.615 80.991 193.455 80.9223C190.849 78.0298 187.416 84.6941 187.254 87.0328C187.106 89.1779 189.259 88.0795 190.065 87.2412C190.512 86.7753 190.919 86.2674 191.33 85.7692C191.984 84.9764 192.633 84.1889 193.034 83.2404Z" fill="white"/>
<path d="M197.67 85.5587H197.459L199.145 80.5011C197.807 80.0598 197.077 81.513 196.616 82.6084L197.67 81.7655C197.29 83.4065 195.015 87.6878 197.248 88.509C198.111 85.8588 199.129 82.6419 201.463 80.9225C201.334 81.9448 200.949 82.9907 202.095 83.4514C202.167 82.8866 202.27 82.3281 202.358 81.7655C202.55 80.5333 201.727 79.2444 200.57 80.5331C199.329 81.9145 198.379 83.8568 197.67 85.5587Z" fill="white"/>
<path d="M220.008 79.8687V80.0794H221.272L220.008 79.8687ZM230.123 79.8687V80.0794H231.177L230.123 79.8687Z" fill="white"/>
<path d="M72.7037 88.2981C73.4424 88.33 74.2857 88.6014 75.0136 88.4395C79.6894 87.3996 74.833 82.4306 77.5507 80.2902C73.1024 79.3701 76.843 85.3586 76.0369 86.795C75.3059 88.0975 73.5269 87.2168 72.7037 88.2981Z" fill="white"/>
<path d="M82.819 80.0795V80.2902H84.9263L82.819 80.0795Z" fill="white"/>
<path d="M101.364 81.7654L102.839 80.7117C102.727 83.3126 101.715 85.7226 100.731 88.0875L101.785 88.509L103.682 85.1372L102.628 85.9801C103.089 84.5619 103.883 82.8629 103.861 81.353C103.83 79.2256 101.886 80.9328 101.364 81.7654Z" fill="white"/>
<path d="M125.809 81.7654L127.284 80.7117C127.173 83.3126 126.16 85.7226 125.177 88.0875L126.231 88.509L128.127 85.1372L127.074 85.9801C127.535 84.5619 128.329 82.8629 128.307 81.353C128.276 79.2256 126.332 80.9328 125.809 81.7654Z" fill="white"/>
<path d="M137.61 80.0795V80.2902H138.453L137.61 80.0795Z" fill="white"/>
<path d="M156.787 80.0795V80.2902H158.895L156.787 80.0795Z" fill="white"/>
<path d="M158.473 81.7654L159.948 80.7117C159.837 83.3126 158.824 85.7226 157.841 88.0875L158.895 88.509L160.791 85.1372L159.738 85.9801C160.199 84.5619 160.993 82.8629 160.971 81.353C160.94 79.2256 158.996 80.9328 158.473 81.7654Z" fill="white"/>
<path d="M221.694 80.0795V80.2902H223.38L221.694 80.0795ZM227.805 80.0795V80.2902H229.702L227.805 80.0795Z" fill="white"/>
<path d="M77.7614 80.29V81.3437H77.9721L77.7614 80.29Z" fill="white"/>
<path d="M86.4016 80.29L84.9265 83.0296L85.5587 82.6081C85.2234 83.7897 83.9352 86.8983 84.8512 87.9787C86.4212 89.8305 89.1357 84.7884 89.5626 83.6618H89.7734C89.4714 85.1209 88.0603 87.8015 89.9841 88.5087L91.0378 85.5584H90.827L90.1948 86.8228H89.9841L92.0915 80.5008C90.6117 80.2578 90.3219 81.5199 89.6781 82.6081C88.5671 84.4858 87.3651 86.6005 85.5587 87.8765C85.5658 85.2881 86.4787 83.0599 87.4553 80.7115L86.4016 80.29Z" fill="white"/>
<path d="M177.018 80.5009V81.1331H177.229L177.018 80.5009Z" fill="white"/>
<path d="M206.521 80.5009L204.624 83.4512C206.434 83.4347 207.266 82.2761 206.521 80.5009Z" fill="#181829"/>
<path d="M82.6084 80.7117V80.9224H83.4513L82.6084 80.7117Z" fill="white"/>
<path d="M83.4513 80.7117V80.9224H84.505L83.4513 80.7117Z" fill="white"/>
<path d="M103.893 80.7117V81.3439H104.103L103.893 80.7117ZM110.636 80.7117L110.425 81.1331H110.847L110.636 80.7117Z" fill="white"/>
<path d="M128.338 80.7117V81.3439H128.549L128.338 80.7117Z" fill="white"/>
<path d="M138.242 80.7117V80.9224H138.875L138.242 80.7117Z" fill="white"/>
<path d="M144.143 80.7117V81.1331L144.565 80.7117H144.143Z" fill="white"/>
<path d="M156.577 80.7117V80.9224H157.42L156.577 80.7117Z" fill="white"/>
<path d="M157.419 80.7117V80.9224H158.473L157.419 80.7117Z" fill="white"/>
<path d="M161.002 80.7117V81.3439H161.213L161.002 80.7117ZM171.539 80.7117L171.328 81.1331H171.749L171.539 80.7117Z" fill="white"/>
<path d="M185.237 80.7117V81.9761H185.447L185.237 80.7117ZM186.501 80.7117V82.1868H186.712L186.501 80.7117Z" fill="white"/>
<path d="M206.732 80.7117V82.819H206.942L206.732 80.7117Z" fill="white"/>
<path d="M80.7115 80.9222L81.133 81.3437V80.9222H80.7115Z" fill="white"/>
<path d="M102.628 80.9222V81.7652H102.839L102.628 80.9222Z" fill="white"/>
<path d="M105.578 87.6659C107.863 86.7802 110.179 83.4453 110.847 81.1331C107.921 80.6606 105.794 85.1965 105.578 87.6659Z" fill="#181829"/>
<path d="M127.074 80.9222V81.7652H127.284L127.074 80.9222Z" fill="white"/>
<path d="M134.239 80.9222V81.133H134.871L134.239 80.9222Z" fill="white"/>
<path d="M136.557 80.9222V81.133H137.4L136.557 80.9222Z" fill="white"/>
<path d="M139.086 87.666C141.427 86.4513 143.359 83.5227 144.354 81.1332C141.37 80.6124 139.14 85.102 139.086 87.666Z" fill="#181829"/>
<path d="M151.94 80.9222V81.5544H152.151L151.94 80.9222ZM154.68 80.9222L155.101 81.3437V80.9222H154.68Z" fill="white"/>
<path d="M159.738 80.9222V81.7652H159.948L159.738 80.9222Z" fill="white"/>
<path d="M166.481 87.6659C168.766 86.7802 171.082 83.4453 171.749 81.1331C168.823 80.6606 166.697 85.1965 166.481 87.6659Z" fill="#181829"/>
<path d="M175.753 80.9222V81.9759H175.964L175.753 80.9222Z" fill="white"/>
<path d="M188.187 87.6659C190.369 86.9241 193.048 83.3899 193.455 81.1331C190.552 80.6642 188.514 85.2507 188.187 87.6659Z" fill="#181829"/>
<path d="M201.252 80.9222V81.5544H201.463L201.252 80.9222Z" fill="white"/>
<path d="M76.2863 81.3439V82.1868H76.497L76.2863 81.3439Z" fill="white"/>
<path d="M152.994 81.3439V81.9761H153.205L152.994 81.3439Z" fill="white"/>
<path d="M180.179 81.3439V82.819H180.39L180.179 81.3439Z" fill="white"/>
<path d="M202.306 81.3439V81.9761H202.517L202.306 81.3439Z" fill="white"/>
<path d="M151.73 82.3976V83.0298H151.94L151.73 82.3976Z" fill="white"/>
<path d="M175.543 82.3976V83.0298H175.754L175.543 82.3976Z" fill="white"/>
<path d="M181.233 82.819V83.4512H181.443L181.233 82.819ZM186.29 82.819V83.4512H186.501L186.29 82.819Z" fill="white"/>
<path d="M202.938 83.0298V83.2405H203.571L202.938 83.0298Z" fill="white"/>
<path d="M110.425 83.2404L110.215 83.6618H110.636L110.425 83.2404Z" fill="white"/>
<path d="M171.328 83.2404L171.117 83.6618H171.539L171.328 83.2404Z" fill="white"/>
<path d="M193.034 83.2404V83.8726H193.244L193.034 83.2404Z" fill="white"/>
<path d="M204.414 83.2404V83.6618H204.835L204.414 83.2404Z" fill="white"/>
<path d="M204.835 83.4514V83.6622H205.678L204.835 83.4514Z" fill="white"/>
<path d="M110.215 83.662L110.004 84.0835H110.425L110.215 83.662Z" fill="white"/>
<path d="M171.117 83.662L170.907 84.0835H171.328L171.117 83.662Z" fill="white"/>
<path d="M192.823 83.662V84.2942H193.034L192.823 83.662Z" fill="white"/>
<path d="M97.7813 83.8727L97.5706 84.2942H97.992L97.7813 83.8727Z" fill="white"/>
<path d="M122.227 83.8727L122.016 84.2942H122.437L122.227 83.8727Z" fill="white"/>
<path d="M197.881 83.8727V84.2942H198.302L197.881 83.8727Z" fill="white"/>
<path d="M205.467 84.0835V84.2942H206.099L205.467 84.0835Z" fill="white"/>
<path d="M89.141 84.5049L89.5625 84.9264V84.5049H89.141Z" fill="white"/>
<path d="M98.835 84.7157V85.3479H99.0457L98.835 84.7157Z" fill="white"/>
<path d="M123.28 84.7157V85.3479H123.491L123.28 84.7157Z" fill="white"/>
<path d="M111.058 84.9263V85.7692H111.268L111.058 84.9263Z" fill="white"/>
<path d="M171.96 84.9263V85.7692H172.171L171.96 84.9263Z" fill="white"/>
<path d="M102.839 85.1371V85.7693H103.05L102.839 85.1371Z" fill="white"/>
<path d="M127.284 85.1371V85.7693H127.495L127.284 85.1371Z" fill="white"/>
<path d="M148.147 85.1371V85.5586L148.569 85.1371H148.147Z" fill="white"/>
<path d="M159.948 85.1371V85.7693H160.159L159.948 85.1371Z" fill="white"/>
<path d="M197.459 85.1371V85.5586L197.881 85.1371H197.459Z" fill="white"/>
<path d="M77.3397 85.5587V86.6124H77.5505L77.3397 85.5587Z" fill="white"/>
<path d="M123.07 85.5587V85.9802H123.491L123.07 85.5587Z" fill="white"/>
<path d="M76.0756 85.7695V86.6124H76.2863L76.0756 85.7695Z" fill="white"/>
<path d="M80.9224 85.7694V86.4016H81.1331L80.9224 85.7694Z" fill="white"/>
<path d="M154.891 85.7694V86.4016H155.101L154.891 85.7694Z" fill="white"/>
<path d="M84.5049 85.9801V86.8231H84.7156L84.5049 85.9801Z" fill="white"/>
<path d="M203.57 86.1908V87.6659H203.781L203.57 86.1908Z" fill="white"/>
<path d="M85.5586 86.4015V87.6659H85.7693L85.5586 86.4015Z" fill="white"/>
<path d="M89.9841 86.4015V86.823L90.4056 86.4015H89.9841Z" fill="white"/>
<path d="M80.7117 86.823V87.4552H80.9224L80.7117 86.823Z" fill="white"/>
<path d="M93.1451 86.823V87.6659H93.3559L93.1451 86.823Z" fill="white"/>
<path d="M117.59 86.823V87.6659H117.801L117.59 86.823Z" fill="white"/>
<path d="M154.68 86.823V87.4552H154.891L154.68 86.823Z" fill="white"/>
<path d="M88.7197 87.0338V88.0875H88.9305L88.7197 87.0338Z" fill="white"/>
<path d="M97.149 87.0338V87.8768H97.3598L97.149 87.0338Z" fill="white"/>
<path d="M121.594 87.0338V87.8768H121.805L121.594 87.0338Z" fill="white"/>
<path d="M137.821 87.0338V87.666H138.032L137.821 87.0338Z" fill="white"/>
<path d="M138.875 87.0338V87.666H139.085L138.875 87.0338Z" fill="white"/>
<path d="M142.879 87.2444V88.0873H143.09L142.879 87.2444Z" fill="white"/>
<path d="M73.9681 87.4552V87.6659H74.8111L73.9681 87.4552Z" fill="white"/>
<path d="M146.672 87.4552V88.0874H146.883L146.672 87.4552Z" fill="white"/>
<path d="M195.984 87.4552V88.0874H196.195L195.984 87.4552Z" fill="white"/>
<path d="M72.9146 88.2982V88.509H73.5468L72.9146 88.2982Z" fill="white"/>
<path d="M74.3896 88.509V88.7197H75.2326L74.3896 88.509Z" fill="white"/>
<path d="M204.203 88.5088V88.7195H204.835L204.203 88.5088Z" fill="white"/>
<path d="M133.606 91.4592V92.3022H133.817L133.606 91.4592ZM132.131 91.8807V92.9344H132.342L132.131 91.8807Z" fill="white"/>
</g>
<defs>
<filter id="filter0_d_1735_14050" x="131.924" y="46.5726" width="120.322" height="10.9503" filterUnits="userSpaceOnUse" color-interpolation-filters="sRGB">
<feFlood flood-opacity="0" result="BackgroundImageFix"/>
<feColorMatrix in="SourceAlpha" type="matrix" values="0 0 0 0 0 0 0 0 0 0 0 0 0 0 0 0 0 0 127 0" result="hardAlpha"/>
<feOffset dy="4"/>
<feGaussianBlur stdDeviation="2"/>
<feComposite in2="hardAlpha" operator="out"/>
<feColorMatrix type="matrix" values="0 0 0 0 0 0 0 0 0 0 0 0 0 0 0 0 0 0 0.25 0"/>
<feBlend mode="normal" in2="BackgroundImageFix" result="effect1_dropShadow_1735_14050"/>
<feBlend mode="normal" in="SourceGraphic" in2="effect1_dropShadow_1735_14050" result="shape"/>
</filter>
<clipPath id="clip0_1735_14050">
<rect width="308.938" height="106" fill="white"/>
</clipPath>
</defs>
</svg>
