<svg width="20" height="20" viewBox="0 0 20 20" fill="none" xmlns="http://www.w3.org/2000/svg">
<g id="Password">
<path id="Password_2" fill-rule="evenodd" clip-rule="evenodd" d="M14.3344 0.000244141H5.6654C2.26782 0.000244141 0.000396729 2.43284 0.000396729 5.91624V14.0842C0.000396729 17.5709 2.26177 20.0002 5.6654 20.0002H14.3334C17.738 20.0002 20.0004 17.5709 20.0004 14.0842V5.91624C20.0004 2.42975 17.7382 0.000244141 14.3344 0.000244141ZM5.6654 1.50024H14.3344C16.8849 1.50024 18.5004 3.23521 18.5004 5.91624V14.0842C18.5004 16.7654 16.8848 18.5002 14.3334 18.5002H5.6654C3.11516 18.5002 1.5004 16.7656 1.5004 14.0842V5.91624C1.5004 3.23862 3.12074 1.50024 5.6654 1.50024ZM6.8403 7.39824C5.40415 7.39824 4.2393 8.56396 4.2393 10.0002C4.2393 11.4365 5.40415 12.6022 6.8403 12.6022C8.01645 12.6022 9.01046 11.8214 9.33252 10.7502L11.4316 10.7501V11.8517L11.4384 11.9535C11.4881 12.3196 11.8019 12.6017 12.1816 12.6017C12.5958 12.6017 12.9316 12.266 12.9316 11.8517V10.7501L14.26 10.75L14.2603 11.8522L14.2671 11.954C14.3168 12.3201 14.6306 12.6022 15.0103 12.6022C15.4245 12.6022 15.7603 12.2665 15.7603 11.8522V10.0002L15.7535 9.89847C15.7038 9.5324 15.39 9.25024 15.0103 9.25024H12.2092C12.2001 9.24991 12.1908 9.24974 12.1816 9.24974C12.1723 9.24974 12.1631 9.24991 12.154 9.25024H9.33251C9.01045 8.17908 8.01644 7.39824 6.8403 7.39824ZM6.8403 8.89824C7.44868 8.89824 7.9423 9.39205 7.9423 10.0002C7.9423 10.6084 7.44868 11.1022 6.8403 11.1022C6.23283 11.1022 5.7393 10.6083 5.7393 10.0002C5.7393 9.39214 6.23283 8.89824 6.8403 8.89824Z" fill="#65656B"/>
</g>
</svg>
