<svg width="29" height="28" viewBox="0 0 29 28" fill="none" xmlns="http://www.w3.org/2000/svg">
<g id="bxl:twitter">
<path id="Vector" d="M23.4052 9.32984C23.4203 9.53401 23.4203 9.73701 23.4203 9.94001C23.4203 16.1525 18.6918 23.3112 10.0503 23.3112C7.38801 23.3112 4.91468 22.54 2.83334 21.2007C3.21134 21.2438 3.57534 21.259 3.96851 21.259C6.08367 21.2641 8.13893 20.5568 9.80301 19.2512C8.82234 19.2334 7.87168 18.9099 7.08379 18.3257C6.29589 17.7415 5.71009 16.9259 5.40818 15.9927C5.69868 16.0358 5.99034 16.065 6.29601 16.065C6.71718 16.065 7.14068 16.0067 7.53384 15.9052C6.46956 15.6903 5.51256 15.1134 4.82557 14.2726C4.13857 13.4319 3.76399 12.3791 3.76551 11.2933V11.235C4.39201 11.5838 5.11884 11.802 5.88884 11.8312C5.24378 11.4025 4.71485 10.8209 4.34924 10.1381C3.98363 9.45533 3.79271 8.69267 3.79351 7.91818C3.79351 7.04551 4.02568 6.24518 4.43284 5.54751C5.61367 7.00003 7.08643 8.18833 8.75574 9.03544C10.425 9.88256 12.2537 10.3696 14.1232 10.465C14.0508 10.115 14.0065 9.75218 14.0065 9.38818C14.0062 8.77097 14.1275 8.15974 14.3636 7.58946C14.5997 7.01917 14.9458 6.501 15.3822 6.06456C15.8187 5.62813 16.3368 5.28199 16.9071 5.04593C17.4774 4.80988 18.0886 4.68854 18.7058 4.68884C20.0592 4.68884 21.2807 5.25584 22.1393 6.17284C23.1914 5.9694 24.2003 5.58534 25.1213 5.03768C24.7707 6.12363 24.0361 7.04446 23.0552 7.62768C23.9883 7.52125 24.9002 7.27587 25.7607 6.89968C25.118 7.83662 24.3216 8.65825 23.4052 9.32984Z" fill="#3BB8FF"/>
</g>
</svg>
