<svg width="21" height="20" viewBox="0 0 21 20" fill="none" xmlns="http://www.w3.org/2000/svg">
<path fill-rule="evenodd" clip-rule="evenodd" d="M10.5 0C4.97715 0 0.5 4.47715 0.5 10C0.5 15.5228 4.97715 20 10.5 20C16.0228 20 20.5 15.5228 20.5 10C20.5 4.47715 16.0228 0 10.5 0ZM10.5 1.44774C15.2233 1.44774 19.0523 5.27672 19.0523 10C19.0523 14.7233 15.2233 18.5523 10.5 18.5523C5.77672 18.5523 1.94774 14.7233 1.94774 10C1.94774 5.27672 5.77672 1.44774 10.5 1.44774ZM13.5084 6.08461L8.59643 7.6218C8.37 7.69266 8.19266 7.87 8.1218 8.09643L6.58461 13.0084C6.41011 13.566 6.93404 14.0899 7.49164 13.9154L12.4036 12.3782C12.63 12.3073 12.8073 12.13 12.8782 11.9036L14.4154 6.99164C14.5899 6.43404 14.066 5.91011 13.5084 6.08461ZM12.6204 7.87856L11.609 11.109L8.37856 12.1204L9.39005 8.89005L12.6204 7.87856Z" fill="#8F90A6"/>
</svg>
