<svg width="19" height="20" viewBox="0 0 19 20" fill="none" xmlns="http://www.w3.org/2000/svg">
<g id="Home">
<path id="Home_2" fill-rule="evenodd" clip-rule="evenodd" d="M17.8394 5.65923C18.5094 6.17823 18.9204 6.94923 18.9904 7.78823L19.0004 7.98923V16.0982C19.0004 18.1882 17.3494 19.8882 15.2804 19.9982H13.2904C12.3394 19.9792 11.5704 19.2392 11.5004 18.3092L11.4904 18.1682V15.3092C11.4904 14.9982 11.2594 14.7392 10.9504 14.6882L10.8604 14.6782H8.18943C7.87043 14.6882 7.61043 14.9182 7.57043 15.2182L7.56043 15.3092V18.1592C7.56043 18.2182 7.54943 18.2882 7.54043 18.3382L7.53043 18.3592L7.51943 18.4282C7.40043 19.2792 6.70043 19.9282 5.83043 19.9892L5.70043 19.9982H3.91043C1.82043 19.9982 0.110427 18.3592 0.000427246 16.2982V7.98923C0.00942725 7.13823 0.380427 6.34823 1.00043 5.79823L7.23043 0.788233C8.50043 -0.220767 10.2804 -0.260767 11.5894 0.668233L11.7504 0.788233L17.8394 5.65923ZM17.5994 16.2582L17.6104 16.0982V7.99823C17.5994 7.56923 17.4204 7.16823 17.1104 6.86923L16.9804 6.75823L10.8804 1.87823C10.1204 1.26823 9.04043 1.23923 8.24043 1.76823L8.08943 1.87823L2.00943 6.77923C1.66043 7.03823 1.45043 7.42823 1.40043 7.83823L1.38943 7.99823V16.0982C1.38943 17.4282 2.42943 18.5182 3.75043 18.5982H5.70043C5.92043 18.5982 6.11043 18.4492 6.13943 18.2392L6.16043 18.0592L6.17043 18.0082V15.3092C6.17043 14.2392 6.99043 13.3692 8.04043 13.2882H10.8604C11.9294 13.2882 12.7994 14.1092 12.8804 15.1592V18.1682C12.8804 18.3782 13.0304 18.5592 13.2304 18.5982H15.0894C16.4294 18.5982 17.5194 17.5692 17.5994 16.2582Z" fill="#1566C9"/>
</g>
</svg>
