<svg width="21" height="18" viewBox="0 0 21 18" fill="none" xmlns="http://www.w3.org/2000/svg">
<g id="Message">
<path id="Message_2" fill-rule="evenodd" clip-rule="evenodd" d="M15.0253 4.75032e-05L5.95618 0C2.78665 0 0.5 2.56151 0.5 5.85897V12.141C0.5 15.4385 2.78665 18 5.95618 18H15.0168C16.5392 17.9829 17.9802 17.3421 19.0126 16.2266C20.0449 15.111 20.5786 13.6183 20.4893 12.0959L20.4906 5.85897C20.5786 4.38171 20.0449 2.88895 19.0126 1.77344C17.9802 0.657936 16.5392 0.0170508 15.0253 4.75032e-05ZM5.95618 1.52843L15.0084 1.52838C16.1073 1.54072 17.1532 2.00592 17.9026 2.81562C18.652 3.62533 19.0393 4.70887 18.9745 5.81389L18.9732 12.141C19.0393 13.2911 18.652 14.3747 17.9026 15.1844C17.1532 15.9941 16.1073 16.4593 15.0084 16.4716L5.95618 16.4716C3.66279 16.4716 2.01744 14.6284 2.01744 12.141V5.85897C2.01744 3.37155 3.66279 1.52843 5.95618 1.52843ZM16.524 5.63837C16.2622 5.30886 15.7847 5.25555 15.4576 5.5193L11.3583 8.82425L11.2408 8.90681C10.7575 9.20955 10.1228 9.18159 9.65981 8.81812L5.53057 5.51731L5.43763 5.4536C5.11736 5.26727 4.70141 5.34031 4.46461 5.64086C4.20412 5.97146 4.25904 6.45216 4.58726 6.71453L8.72174 10.0195L8.88304 10.1375C9.92309 10.8459 11.3013 10.8067 12.2988 10.0236L16.4058 6.71255L16.4882 6.63551C16.74 6.36261 16.7621 5.93792 16.524 5.63837Z" fill="#8F90A6"/>
</g>
</svg>
