<svg width="25" height="24" viewBox="0 0 25 24" fill="none" xmlns="http://www.w3.org/2000/svg">
<g id="Iconsax/Bold/playcircle">
<path id="Vector" d="M12.469 2C6.94899 2 2.46899 6.48 2.46899 12C2.46899 17.52 6.94899 22 12.469 22C17.989 22 22.469 17.52 22.469 12C22.469 6.48 17.999 2 12.469 2ZM15.469 14.23L12.569 15.9C12.2199 16.1034 11.8231 16.2106 11.419 16.2106C11.0149 16.2106 10.6181 16.1034 10.269 15.9C9.91711 15.6986 9.62515 15.4073 9.42305 15.0558C9.22096 14.7043 9.11602 14.3054 9.11899 13.9V10.55C9.11899 9.72 9.54899 8.97 10.269 8.55C10.989 8.13 11.849 8.13 12.579 8.55L15.479 10.22C16.199 10.64 16.629 11.38 16.629 12.22C16.629 13.06 16.199 13.81 15.469 14.23Z" fill="#8F90A6"/>
</g>
</svg>
