<svg width="25" height="24" viewBox="0 0 25 24" fill="none" xmlns="http://www.w3.org/2000/svg">
<g id="Iconsax/Linear/shoppingcart">
<path id="Vector" d="M2.5 2H4.24C5.32 2 6.17 2.93 6.08 4L5.25 13.96C5.21759 14.3459 5.26569 14.7342 5.39123 15.1005C5.51678 15.4669 5.71705 15.8031 5.97934 16.0879C6.24163 16.3728 6.56023 16.6001 6.91495 16.7553C7.26967 16.9106 7.65278 16.9905 8.04 16.99H18.69C20.13 16.99 21.39 15.81 21.5 14.38L22.04 6.88C22.16 5.22 20.9 3.87 19.23 3.87H6.32M9.5 8H21.5M16.75 22C17.0815 22 17.3995 21.8683 17.6339 21.6339C17.8683 21.3995 18 21.0815 18 20.75C18 20.4185 17.8683 20.1005 17.6339 19.8661C17.3995 19.6317 17.0815 19.5 16.75 19.5C16.4185 19.5 16.1005 19.6317 15.8661 19.8661C15.6317 20.1005 15.5 20.4185 15.5 20.75C15.5 21.0815 15.6317 21.3995 15.8661 21.6339C16.1005 21.8683 16.4185 22 16.75 22ZM8.75 22C9.08152 22 9.39946 21.8683 9.63388 21.6339C9.8683 21.3995 10 21.0815 10 20.75C10 20.4185 9.8683 20.1005 9.63388 19.8661C9.39946 19.6317 9.08152 19.5 8.75 19.5C8.41848 19.5 8.10054 19.6317 7.86612 19.8661C7.6317 20.1005 7.5 20.4185 7.5 20.75C7.5 21.0815 7.6317 21.3995 7.86612 21.6339C8.10054 21.8683 8.41848 22 8.75 22Z" stroke="#8F90A6" stroke-width="1.5" stroke-miterlimit="10" stroke-linecap="round" stroke-linejoin="round"/>
</g>
</svg>
