<svg width="99" height="40" viewBox="0 0 99 40" fill="none" xmlns="http://www.w3.org/2000/svg">
<g clip-path="url(#clip0_1297_2206)">
<path d="M79.9609 8.2656C77.4576 8.76398 75.5094 10.0701 74.0105 12.1769C73.204 10.9534 72.427 9.77444 71.5808 8.4907C72.485 7.91359 73.3415 7.24602 74.2942 6.77877C79.9306 4.01438 85.3772 4.38416 90.5331 8.00604C92.7527 9.56522 94.3612 11.6809 95.3643 14.2254C96.033 15.9218 96.4027 17.674 96.3981 19.5327C96.3912 22.2914 95.6577 24.8167 94.1936 27.0959C91.7598 30.8846 88.2648 33.0968 83.8642 33.8511C82.4505 34.0934 81.0291 34.1001 79.6061 33.937C79.4372 33.9177 79.2702 33.8818 79.0552 33.8457C79.388 32.8586 79.712 31.9199 80.0182 30.9753C80.1062 30.7037 80.2838 30.7687 80.4694 30.7911C83.0576 31.1037 85.605 30.8911 88.1088 30.1646C88.5545 30.0353 88.9929 29.8706 89.4172 29.682C89.5256 29.6338 89.6501 29.4136 89.6263 29.3037C89.4434 28.4601 89.2257 27.6243 89.0157 26.7737C88.3259 26.9924 87.665 27.2502 86.9817 27.4096C84.9378 27.8862 82.87 28.0926 80.8043 27.588C78.1407 26.9373 76.4865 25.2277 75.8634 22.5305C75.6964 21.8077 75.6175 21.0642 75.4867 20.26C80.6383 20.26 85.6871 20.26 90.7473 20.26C91.0118 19.2149 90.9716 18.2015 90.8876 17.2005C90.7607 15.6887 90.4191 14.2232 89.7504 12.8476C88.3325 9.93122 86.0186 8.33409 82.8197 8.1194C81.8863 8.05676 80.9389 8.20617 79.9609 8.2656Z" fill="url(#paint0_linear_1297_2206)"/>
<path d="M21.7023 24.9815C21.3804 26.9047 20.3134 27.9847 18.3933 28.2957C16.8451 28.5466 15.3276 28.3547 13.7994 27.8531C13.8684 27.3123 13.924 26.7754 14.0102 26.2436C14.0506 25.9943 14.4626 25.8731 14.755 25.9465C15.4829 26.1293 16.2116 26.3907 16.9502 26.4317C18.8758 26.5386 19.6206 25.7396 19.5706 23.7618C19.5301 23.7676 19.48 23.7592 19.4533 23.7807C17.0243 25.7298 14.2201 24.8616 13.3549 21.8479C12.8243 20 13.0199 18.2095 14.1192 16.5896C15.2082 14.9847 17.6986 14.4176 19.5388 15.6789C19.6817 15.2973 19.9388 15.1187 20.3584 15.1623C20.6748 15.1951 20.9975 15.1613 21.317 15.1708C21.6785 15.1815 21.8832 15.3783 21.8794 15.7455C21.85 18.6374 21.8156 21.5293 21.778 24.4211C21.7757 24.5956 21.732 24.7695 21.7023 24.9815ZM19.2887 21.6874C19.5297 21.5042 19.5962 21.2651 19.5884 20.9605C19.5675 20.1529 19.5316 19.3402 19.5972 18.5375C19.6478 17.9194 19.3795 17.5789 18.8974 17.3201C18.7694 17.2513 18.6421 17.1792 18.5083 17.1238C17.4161 16.6714 16.3754 16.9912 15.9115 18.0053C15.3435 19.2468 15.3325 20.5352 15.8441 21.8076C16.0757 22.3837 16.54 22.6434 17.1499 22.6625C17.9962 22.689 18.6544 22.2947 19.2887 21.6874Z" fill="white"/>
<path d="M63.1032 22.3132C63.1032 18.7727 63.1031 15.2762 63.1033 11.7797C63.1033 11.184 63.2576 11.0268 63.8407 11.0255C64.1169 11.0249 64.3931 11.0248 64.6694 11.025C65.2621 11.0256 65.42 11.1804 65.4203 11.7664C65.421 13.1741 65.4205 14.5818 65.4205 16.01C65.4825 15.999 65.53 16.005 65.5557 15.9839C67.8678 14.0807 70.8089 14.9353 71.6241 17.8149C72.185 19.7961 72.0403 21.7547 70.8394 23.5052C69.6182 25.2855 67.2375 25.6755 65.4809 24.432C65.4348 24.3993 65.3851 24.3719 65.3047 24.3218C65.252 24.5379 65.205 24.731 65.1491 24.9606C64.6209 24.9606 64.0996 24.9871 63.5828 24.9504C63.2842 24.9292 63.103 24.7139 63.1034 24.3846C63.1044 23.7089 63.1034 23.0331 63.1032 22.3132ZM65.4197 20.153C65.4196 20.5639 65.4796 20.986 65.4071 21.3834C65.2587 22.1969 65.7119 22.5943 66.3203 22.9218C66.3459 22.9356 66.3717 22.949 66.3977 22.9621C67.3365 23.4356 68.4399 23.2434 68.875 22.4397C69.6673 20.9761 69.6892 19.4415 69.0634 17.9093C68.8449 17.3743 68.3866 17.1309 67.8118 17.1134C67.0494 17.0902 66.4544 17.4587 65.8887 17.9182C65.5516 18.1922 65.3568 18.4998 65.4112 18.9653C65.4535 19.3271 65.4197 19.698 65.4197 20.153Z" fill="white"/>
<path d="M9.03252 13.9388C8.20625 13.9388 7.42362 13.9388 6.61514 13.9388C6.61514 14.9943 6.61514 16.028 6.61514 17.1092C7.80314 17.1092 8.98964 17.1024 10.1759 17.1169C10.3451 17.119 10.5624 17.1783 10.6687 17.2942C10.7874 17.4239 10.8507 17.6461 10.8591 17.8317C10.9168 19.0982 10.8433 19.1736 9.57956 19.1455C8.5957 19.1236 7.61098 19.1411 6.60803 19.1411C6.60803 20.4049 6.60803 21.634 6.60803 22.9076C6.71935 22.914 6.84311 22.9272 6.96689 22.9273C8.43461 22.9288 9.90233 22.9274 11.3701 22.9291C11.8327 22.9296 12.0272 23.1233 12.0329 23.5838C12.0361 23.8481 12.0361 24.1125 12.0316 24.3767C12.0254 24.7441 11.8327 24.9564 11.474 24.9575C9.22158 24.9644 6.96911 24.9636 4.71668 24.9578C4.35088 24.9569 4.15239 24.689 4.15231 24.2408C4.15173 20.7164 4.15198 17.192 4.15198 13.6676C4.15198 13.3005 4.14941 12.9334 4.15286 12.5663C4.15699 12.1261 4.37658 11.9075 4.81963 11.9072C6.88317 11.9058 8.9467 11.906 11.0102 11.9073C11.4756 11.9076 11.6712 12.0992 11.6775 12.5567C11.6811 12.821 11.6839 13.0856 11.6757 13.3496C11.6637 13.7328 11.4694 13.9383 11.0815 13.9385C10.4131 13.9389 9.7446 13.9387 9.03252 13.9388Z" fill="white"/>
<path d="M79.0987 17.39C77.9249 17.39 76.7946 17.39 75.5253 17.39C75.7702 16.5511 75.9422 15.7698 76.2247 15.0316C76.9758 13.0688 78.2201 11.5567 80.3433 11.092C82.4346 10.6344 84.3487 11.0102 85.7752 12.7872C86.5339 13.7324 86.9179 14.8511 87.0303 16.0632C87.0692 16.4822 87.1134 16.9008 87.1621 17.39C84.4484 17.39 81.7954 17.39 79.0987 17.39Z" fill="url(#paint1_linear_1297_2206)"/>
<path d="M38.4174 15.1476C39.3764 14.9145 40.2987 14.9402 41.2095 15.1935C42.6661 15.5986 43.5481 16.6131 44.0141 18.0168C44.4714 19.3945 44.4652 20.7901 43.9955 22.1638C43.1685 24.5829 41.1898 25.3295 39.1257 25.0969C36.7836 24.8328 35.2983 23.1948 35.1165 20.7958C35.0288 19.6377 35.1365 18.5125 35.6309 17.4452C36.1894 16.2398 37.0957 15.466 38.4174 15.1476ZM41.3484 17.7504C40.3173 16.4983 38.5065 16.6629 37.8817 18.1141C37.3267 19.4031 37.3466 20.7443 37.8965 22.0411C38.2317 22.8316 38.8755 23.2006 39.7337 23.1929C40.5937 23.1852 41.2393 22.7977 41.5486 22.0035C42.0979 20.5933 42.1019 19.1764 41.3484 17.7504Z" fill="white"/>
<path d="M28.0401 15.595C28.9359 15.0385 29.8677 14.8467 30.8638 15.0998C32.0655 15.4051 32.8641 16.4054 32.9019 17.8437C32.9594 20.0303 32.93 22.2193 32.9225 24.4072C32.9213 24.7351 32.7082 24.9424 32.3737 24.9568C31.9965 24.973 31.6182 24.9636 31.2404 24.9605C30.8018 24.9568 30.5858 24.7376 30.5853 24.2887C30.5834 22.4531 30.5845 20.6175 30.5843 18.7819C30.5843 18.635 30.5841 18.4881 30.582 18.3413C30.5664 17.2535 30.0191 16.8802 28.9933 17.2402C28.2043 17.517 27.7082 18.122 27.2676 18.786C27.1964 18.8934 27.2059 19.0664 27.2055 19.2092C27.2014 20.898 27.2034 22.5867 27.2016 24.2755C27.201 24.7708 27.0147 24.9575 26.5267 24.9599C26.178 24.9617 25.8292 24.9623 25.4804 24.9596C25.092 24.9566 24.8947 24.749 24.8943 24.3632C24.8914 21.4997 24.8905 18.6361 24.8934 15.7726C24.8938 15.3721 25.1065 15.1755 25.5171 15.1701C25.8223 15.1662 26.1275 15.1686 26.4326 15.1691C27.0511 15.1702 27.195 15.3132 27.204 15.9346C27.205 16.0024 27.2041 16.0702 27.2041 16.208C27.5106 15.982 27.7616 15.7969 28.0401 15.595Z" fill="white"/>
<path d="M50.9617 12.8121C49.5019 12.7458 49.3446 12.8991 49.3447 14.3463C49.3447 14.6071 49.3447 14.8679 49.3447 15.1688C49.8958 15.1688 50.4146 15.1665 50.9333 15.1695C51.3552 15.1721 51.5707 15.3841 51.5794 15.8025C51.6033 16.9562 51.645 17.1767 50.3387 17.1153C50.0228 17.1004 49.7056 17.1131 49.3446 17.1131C49.3446 17.2979 49.3446 17.4544 49.3446 17.611C49.3447 19.8131 49.3449 22.0152 49.3448 24.2173C49.3448 24.7616 49.1557 24.9586 48.6298 24.9605C48.3102 24.9616 47.9906 24.9623 47.671 24.9603C47.2064 24.9573 46.9949 24.7425 46.9947 24.2657C46.9936 21.9755 46.9944 19.6854 46.9946 17.3952C46.9946 17.3223 46.9946 17.2495 46.9946 17.1647C46.6215 16.9926 46.0627 17.3448 45.8565 16.8559C45.7135 16.5168 45.7098 16.0844 45.7518 15.7059C45.8395 14.9155 46.5105 15.2558 46.9632 15.1451C46.9955 14.6211 47.0145 14.0975 47.0626 13.5766C47.1972 12.117 48.1161 11.1495 49.5731 10.9102C50.5511 10.7496 51.504 10.935 52.4903 11.0839C52.4903 11.5522 52.5002 11.9903 52.4869 12.4276C52.4777 12.7308 52.1664 12.9695 51.8643 12.9303C51.5765 12.8929 51.289 12.8535 50.9617 12.8121Z" fill="white"/>
<path d="M60.9541 22.2483C61.1565 22.2946 61.3278 22.3207 61.532 22.3519C61.532 23.0745 61.532 23.8151 61.532 24.6434C60.9928 24.5947 60.4383 24.6047 59.9135 24.4834C59.0776 24.2901 58.5061 23.5122 58.416 22.5752C58.3935 22.3417 58.3864 22.1058 58.3862 21.871C58.3843 18.3742 58.3848 14.8774 58.3847 11.3806C58.3847 11.2794 58.3847 11.1783 58.3847 11.051C59.1453 11.051 59.879 11.051 60.6699 11.051C60.6699 11.2024 60.6699 11.3582 60.6699 11.514C60.67 14.8198 60.6644 18.1256 60.6813 21.4313C60.6827 21.6973 60.8388 21.9626 60.9541 22.2483Z" fill="white"/>
<path d="M55.6435 17.64C55.6435 19.8727 55.6438 22.0612 55.6431 24.2498C55.643 24.7827 55.4702 24.9584 54.9483 24.9602C54.5994 24.9614 54.2504 24.9667 53.9018 24.9587C53.5374 24.9502 53.3394 24.7511 53.339 24.3838C53.3358 21.5049 53.3358 18.626 53.3386 15.7471C53.3389 15.3791 53.5377 15.1796 53.9006 15.1709C54.2929 15.1615 54.6856 15.1631 55.0779 15.1709C55.4428 15.1781 55.6369 15.3802 55.6415 15.7452C55.6492 16.362 55.6436 16.979 55.6435 17.64Z" fill="white"/>
<path d="M53.7647 11.91C54.2105 11.9069 54.6177 11.9032 55.0248 11.9074C55.423 11.9115 55.6372 12.1227 55.6428 12.5185C55.6481 12.9004 55.6475 13.2825 55.6426 13.6645C55.6375 14.0705 55.431 14.2855 55.0407 14.2906C54.6627 14.2956 54.2846 14.2963 53.9066 14.2903C53.5405 14.2845 53.3484 14.0846 53.3389 13.7191C53.3298 13.3667 53.3551 13.0126 53.3314 12.6616C53.308 12.3165 53.4123 12.0647 53.7647 11.91Z" fill="white"/>
<path d="M19.2648 21.7094C18.6544 22.2948 17.9962 22.6891 17.15 22.6625C16.5401 22.6434 16.0757 22.3838 15.8441 21.8076C15.3326 20.5353 15.3436 19.2469 15.9115 18.0054C16.3754 16.9913 17.4162 16.6715 18.5083 17.1239C18.6421 17.1793 18.7694 17.2514 18.8975 17.3202C19.3796 17.579 19.6478 17.9195 19.5973 18.5376C19.5317 19.3403 19.5676 20.1529 19.5884 20.9606C19.5963 21.2652 19.5297 21.5042 19.2648 21.7094Z" fill="#181829"/>
<path d="M65.4196 20.1089C65.4196 19.6979 65.4535 19.327 65.4112 18.9652C65.3567 18.4997 65.5515 18.1921 65.8887 17.9181C66.4543 17.4586 67.0493 17.0901 67.8117 17.1133C68.3866 17.1308 68.8449 17.3742 69.0634 17.9092C69.6892 19.4414 69.6673 20.976 68.8749 22.4396C68.4399 23.2433 67.3365 23.4355 66.3977 22.962C66.3717 22.9489 66.3458 22.9355 66.3202 22.9217C65.7119 22.5942 65.2587 22.1968 65.4071 21.3833C65.4796 20.9859 65.4196 20.5638 65.4196 20.1089Z" fill="#181829"/>
<path d="M41.3673 17.7763C42.1019 19.1764 42.0978 20.5933 41.5486 22.0035C41.2392 22.7977 40.5937 23.1852 39.7336 23.1929C38.8754 23.2006 38.2317 22.8315 37.8965 22.0411C37.3465 20.7443 37.3267 19.4031 37.8817 18.1141C38.5065 16.6629 40.3173 16.4983 41.3673 17.7763Z" fill="#181829"/>
</g>
<defs>
<linearGradient id="paint0_linear_1297_2206" x1="71.5808" y1="4.96008" x2="103.099" y2="20.086" gradientUnits="userSpaceOnUse">
<stop stop-color="#F5F5F5"/>
<stop offset="1" stop-color="#E0E0E0"/>
</linearGradient>
<linearGradient id="paint1_linear_1297_2206" x1="75.5253" y1="10.9139" x2="84.5193" y2="20.0047" gradientUnits="userSpaceOnUse">
<stop stop-color="#F5F5F5"/>
<stop offset="1" stop-color="#E0E0E0"/>
</linearGradient>
<clipPath id="clip0_1297_2206">
<rect width="99" height="40" fill="white"/>
</clipPath>
</defs>
</svg>
