<svg width="24" height="24" viewBox="0 0 24 24" fill="none" xmlns="http://www.w3.org/2000/svg">
<g id="Iconsax/Outline/volumeslash">
<path id="Vector" d="M7 17.75H5C2.58 17.75 1.25 16.42 1.25 14V9.99999C1.25 7.57999 2.58 6.24999 5 6.24999H6.43C6.66 6.24999 6.89 6.17999 7.09 6.05999L10.01 4.22999C11.47 3.31999 12.89 3.14999 14.01 3.76999C15.13 4.38999 15.74 5.67999 15.74 7.40999V8.36999C15.74 8.77999 15.4 9.11999 14.99 9.11999C14.58 9.11999 14.24 8.77999 14.24 8.36999V7.40999C14.24 6.26999 13.89 5.41999 13.28 5.08999C12.67 4.74999 11.77 4.89999 10.8 5.50999L7.88 7.32999C7.45 7.60999 6.94 7.74999 6.43 7.74999H5C3.42 7.74999 2.75 8.41999 2.75 9.99999V14C2.75 15.58 3.42 16.25 5 16.25H7C7.41 16.25 7.75 16.59 7.75 17C7.75 17.41 7.41 17.75 7 17.75ZM12.552 20.59C11.762 20.59 10.892 20.31 10.022 19.76C9.85359 19.6552 9.73369 19.4879 9.68868 19.2947C9.64367 19.1015 9.67724 18.8984 9.782 18.73C9.88676 18.5616 10.0541 18.4417 10.2473 18.3967C10.4405 18.3517 10.6436 18.3852 10.812 18.49C11.782 19.09 12.682 19.25 13.292 18.91C13.902 18.57 14.252 17.72 14.252 16.59V12.95C14.252 12.54 14.592 12.2 15.002 12.2C15.412 12.2 15.752 12.54 15.752 12.95V16.59C15.752 18.31 15.132 19.61 14.022 20.23C13.572 20.47 13.072 20.59 12.552 20.59ZM18 16.75C17.8607 16.75 17.7242 16.7112 17.6057 16.638C17.4872 16.5648 17.3915 16.46 17.3292 16.3354C17.2669 16.2108 17.2405 16.0714 17.253 15.9326C17.2655 15.7939 17.3164 15.6614 17.4 15.55C18.0182 14.7235 18.4098 13.75 18.5361 12.7257C18.6623 11.7014 18.5189 10.6618 18.12 9.70999C18.0435 9.52695 18.0427 9.32106 18.1176 9.13739C18.1926 8.95372 18.3373 8.80723 18.52 8.72999C18.9 8.56999 19.34 8.74999 19.5 9.12999C20.52 11.55 20.17 14.36 18.6 16.46C18.45 16.65 18.23 16.75 18 16.75Z" fill="white"/>
<path id="Vector_2" d="M19.828 19.25C19.6887 19.25 19.5522 19.2113 19.4337 19.138C19.3152 19.0648 19.2195 18.96 19.1572 18.8355C19.0949 18.7109 19.0685 18.5714 19.081 18.4327C19.0935 18.294 19.1444 18.1615 19.228 18.05C21.368 15.2 21.838 11.38 20.458 8.09004C20.3815 7.907 20.3807 7.70111 20.4556 7.51744C20.5306 7.33377 20.6753 7.18728 20.858 7.11004C21.248 6.95004 21.678 7.13004 21.838 7.51004C23.428 11.29 22.888 15.67 20.428 18.95C20.288 19.15 20.058 19.25 19.828 19.25ZM2.001 22.751C1.811 22.751 1.621 22.681 1.471 22.531C1.33152 22.3899 1.2533 22.1995 1.2533 22.001C1.2533 21.8026 1.33152 21.6122 1.471 21.471L21.471 1.47104C21.761 1.18104 22.241 1.18104 22.531 1.47104C22.821 1.76104 22.821 2.24104 22.531 2.53104L2.531 22.531C2.381 22.681 2.191 22.751 2.001 22.751Z" fill="white"/>
</g>
</svg>
