<svg width="16" height="16" viewBox="0 0 16 16" fill="none" xmlns="http://www.w3.org/2000/svg">
<g id="Chat">
<path id="Chat_2" fill-rule="evenodd" clip-rule="evenodd" d="M8.04347 0.500061C5.40976 0.489477 2.96416 1.85513 1.59545 4.09996C0.226558 6.34507 0.134662 9.14187 1.35324 11.4717L1.49111 11.7405C1.54381 11.8393 1.55398 11.9459 1.52344 12.0444C1.32653 12.5647 1.15352 13.1267 1.01547 13.6976L1.00082 13.8206C1.00082 14.3946 1.30712 14.7891 1.91503 14.7756L2.01626 14.7634C2.56848 14.6415 3.11233 14.4843 3.64445 14.293C3.71499 14.2752 3.83052 14.2821 3.93478 14.3248L4.44668 14.6145C4.44783 14.618 4.4487 14.6207 4.45406 14.6238L4.48841 14.6359C7.24471 16.0852 10.6109 15.6853 12.9498 13.6308C15.289 11.576 16.115 8.29247 15.0257 5.37778C13.9365 2.4634 11.1586 0.522955 8.04347 0.500061ZM7.82567 1.54917L8.03632 1.54587C10.7174 1.56626 13.1082 3.23636 14.0454 5.74416C14.9826 8.25168 14.272 11.0765 12.2592 12.8446L12.094 12.9848C10.147 14.5834 7.44372 14.9056 5.17457 13.81L4.95878 13.7018L4.96803 13.7031L4.95437 13.6993L4.63764 13.5176C4.52359 13.4531 4.43311 13.4043 4.3602 13.3692C4.01283 13.226 3.66021 13.2049 3.32856 13.2962L3.01459 13.404C2.8071 13.4726 2.60285 13.5345 2.3996 13.5905L2.10331 13.6679L2.03273 13.9436C2.1607 13.4143 2.32108 12.8934 2.51297 12.3837C2.63645 11.9886 2.59869 11.5928 2.41822 11.2551L2.28252 10.9904C1.23226 8.98231 1.31131 6.57633 2.48902 4.64477C3.63009 2.77331 5.64126 1.61167 7.82567 1.54917ZM3.85595 8.00003C3.85595 7.52738 4.23939 7.14456 4.71197 7.14456C5.18454 7.14456 5.56799 7.52738 5.56799 8.00003C5.56799 8.47269 5.18454 8.85551 4.71197 8.85551C4.23939 8.85551 3.85595 8.47269 3.85595 8.00003ZM7.18357 8.00003C7.18357 7.52738 7.56701 7.14456 8.03959 7.14456C8.51217 7.14456 8.89561 7.52738 8.89561 8.00003C8.89561 8.47269 8.51217 8.85551 8.03959 8.85551C7.56701 8.85551 7.18357 8.47269 7.18357 8.00003ZM11.3673 7.14456C10.8948 7.14456 10.5113 7.52738 10.5113 8.00003C10.5113 8.47269 10.8948 8.85551 11.3673 8.85551C11.8399 8.85551 12.2234 8.47269 12.2234 8.00003C12.2234 7.52738 11.8399 7.14456 11.3673 7.14456Z" fill="white"/>
</g>
</svg>
